<svg width="534.805" height="201.075" viewBox="0 0 401.104 150.806" xmlns="http://www.w3.org/2000/svg" xmlns:xlink="http://www.w3.org/1999/xlink" overflow="hidden"><symbol id="a" overflow="hidden"><path d="M0 0.676 0 0.651C0.069 0.647 0.088 0.631 0.088 0.58L0.088 0.096C0.088 0.045 0.073 0.033 0 0.025L0 0 0.322 0C0.491 0 0.603 0.075 0.603 0.188 0.602966 0.233018 0.583236 0.275767 0.549 0.305 0.509137 0.33752 0.461006 0.358296 0.41 0.365 0.526 0.399 0.569 0.44 0.569 0.516 0.569 0.619 0.476 0.676 0.309 0.676L0 0.676M0.248 0.343 0.278 0.343C0.381 0.343 0.431 0.289 0.431 0.179 0.431 0.082 0.39 0.032 0.309 0.032 0.265 0.032 0.248 0.049 0.248 0.093L0.248 0.343M0.248 0.597C0.248 0.633 0.263 0.646 0.302 0.646 0.372 0.646 0.404 0.603 0.404 0.509 0.404 0.404 0.371 0.376 0.248 0.373L0.248 0.597Z"/></symbol><symbol id="b" overflow="hidden"><path d="M0.377 0.139C0.337 0.09 0.306 0.072 0.263 0.072 0.225658 0.0712634 0.191143 0.091817 0.174 0.125 0.15319 0.16654 0.142888 0.212552 0.144 0.259L0.396 0.259C0.39 0.343 0.375 0.39 0.343 0.428 0.309613 0.466999 0.260309 0.488707 0.209 0.487 0.084 0.487 0 0.388 0 0.242 0 0.096 0.082 0 0.206 0 0.287 0 0.336 0.032 0.401 0.125L0.377 0.139M0.139 0.296C0.142 0.416 0.16 0.456 0.209 0.456 0.237 0.456 0.256 0.44 0.264 0.409 0.270121 0.376696 0.273135 0.343879 0.273 0.311L0.273 0.296 0.139 0.296Z"/></symbol><symbol id="c" overflow="hidden"><path d="M0.191 0.461 0 0.461 0 0.437C0.044 0.43 0.053 0.42 0.053 0.378L0.053 0.084C0.053 0.042 0.045 0.033 0 0.024L0 0 0.241 0 0.241 0.024C0.204 0.029 0.192 0.044 0.192 0.081L0.192 0.348C0.192 0.352 0.199 0.362 0.209 0.371 0.231 0.394 0.255 0.406 0.278 0.406 0.313 0.406 0.33 0.379 0.33 0.323L0.33 0.081C0.33 0.044 0.317 0.028 0.283 0.024L0.283 0 0.518 0 0.518 0.024C0.479 0.027 0.469 0.039 0.469 0.081L0.469 0.332C0.469 0.418 0.416 0.473 0.334 0.473 0.274 0.473 0.228 0.445 0.191 0.386L0.191 0.461Z"/></symbol><symbol id="d" overflow="hidden"><path d="M0.387 0.123C0.35 0.081 0.324 0.067 0.283 0.067 0.196 0.067 0.141 0.154 0.141 0.29 0.141 0.393 0.173 0.456 0.225 0.456 0.241 0.456 0.256 0.448 0.262 0.437 0.267 0.428 0.267 0.428 0.267 0.386 0.268 0.337 0.286 0.314 0.323 0.314 0.365 0.314 0.391 0.338 0.391 0.377 0.391 0.439 0.324 0.487 0.236 0.487 0.1 0.487 0 0.381 0 0.237 0 0.099 0.09 0 0.214 0 0.291 0 0.347 0.031 0.405 0.105L0.387 0.123Z"/></symbol><symbol id="e" overflow="hidden"><path d="M0.192 0.676 0 0.676 0 0.652C0.046 0.643 0.053 0.635 0.053 0.594L0.053 0.084C0.053 0.042 0.045 0.033 0 0.024L0 0 0.241 0 0.241 0.024C0.204 0.029 0.192 0.044 0.192 0.081L0.192 0.348C0.192 0.352 0.199 0.362 0.209 0.371 0.231 0.394 0.255 0.406 0.278 0.406 0.313 0.406 0.33 0.379 0.33 0.323L0.33 0.081C0.33 0.044 0.317 0.028 0.283 0.024L0.283 0 0.518 0 0.518 0.024C0.482 0.027 0.469 0.042 0.469 0.084L0.469 0.332C0.469 0.418 0.416 0.473 0.334 0.473 0.281 0.473 0.244 0.453 0.192 0.395L0.192 0.676Z"/></symbol><symbol id="f" overflow="hidden"><path d="M0.191 0.461 0 0.461 0 0.437C0.044 0.431 0.055 0.419 0.055 0.378L0.055 0.084C0.055 0.043 0.044 0.032 0 0.024L0 0 0.24 0 0.24 0.024C0.205 0.029 0.194 0.043 0.194 0.081L0.194 0.348C0.194 0.354 0.21 0.373 0.223 0.383 0.244 0.399 0.261 0.406 0.278 0.406 0.317 0.406 0.332 0.383 0.332 0.323L0.332 0.081C0.332 0.04 0.321 0.027 0.284 0.024L0.284 0 0.518 0 0.518 0.024C0.483 0.028 0.471 0.043 0.471 0.081L0.471 0.348C0.471 0.353 0.487 0.372 0.5 0.382 0.522 0.399 0.539 0.406 0.556 0.406 0.594 0.406 0.609 0.382 0.609 0.323L0.609 0.081C0.609 0.039 0.598 0.027 0.56 0.024L0.56 0 0.798 0 0.798 0.024C0.759 0.026 0.748 0.038 0.748 0.081L0.748 0.332C0.748 0.418 0.695 0.473 0.613 0.473 0.556 0.473 0.518 0.45 0.466 0.386 0.436 0.449 0.401 0.473 0.338 0.473 0.275 0.473 0.229 0.446 0.191 0.386L0.191 0.461Z"/></symbol><symbol id="g" overflow="hidden"><path d="M0.448 0.078 0.438 0.068C0.435 0.065 0.432 0.064 0.427 0.064 0.413 0.064 0.406 0.073 0.406 0.089L0.406 0.35C0.406 0.434 0.33 0.487 0.208 0.487 0.095 0.487 0.019 0.436 0.019 0.361 0.019 0.32 0.043 0.295 0.084 0.295 0.124 0.295 0.152 0.319 0.152 0.353 0.152 0.367 0.146 0.38 0.134 0.396 0.125 0.406 0.122 0.412 0.122 0.418 0.122 0.439 0.15 0.455 0.185 0.455 0.243 0.455 0.269 0.428 0.269 0.367L0.269 0.294C0.197081 0.277147 0.128015 0.249857 0.064 0.213 0.021 0.183 0 0.149 0 0.106 0 0.045 0.047 0 0.111 0 0.168 0 0.214 0.02 0.269 0.07 0.28 0.019 0.302 0 0.351 0 0.394 0 0.425 0.016 0.463 0.057L0.448 0.078M0.268 0.114C0.241 0.083 0.221 0.071 0.197 0.071 0.167 0.071 0.146 0.098 0.146 0.138 0.146 0.196 0.188 0.238 0.268 0.259L0.268 0.114Z"/></symbol><symbol id="h" overflow="hidden"><path d="M0.189 0.461 0 0.461 0 0.437C0.043 0.431 0.054 0.418 0.054 0.378L0.054 0.084C0.054 0.043 0.044 0.032 0 0.024L0 0 0.266 0 0.266 0.024C0.205 0.028 0.193 0.041 0.193 0.103L0.193 0.292C0.193 0.344 0.221 0.387 0.254 0.387 0.262 0.387 0.271 0.38 0.282 0.364 0.301 0.337 0.316 0.328 0.342 0.328 0.379 0.328 0.405 0.356 0.405 0.395 0.405 0.44 0.371 0.473 0.324 0.473 0.274 0.473 0.236 0.446 0.189 0.379L0.189 0.461Z"/></symbol><symbol id="i" overflow="hidden"><path d="M0.491 0.461 0.277 0.461 0.277 0.438 0.301 0.434C0.325 0.431 0.336 0.424 0.336 0.411 0.336 0.402 0.326 0.384 0.315 0.373L0.187 0.245 0.187 0.676 0 0.676 0 0.652C0.034 0.649 0.048 0.632 0.048 0.594L0.048 0.084C0.048 0.045 0.033 0.027 0 0.024L0 0 0.239 0 0.239 0.024C0.192 0.031 0.187 0.037 0.187 0.084L0.187 0.198 0.21 0.222 0.305 0.088C0.322 0.063 0.329 0.051 0.329 0.043 0.329 0.031 0.315 0.025 0.287 0.024L0.287 0 0.521 0 0.521 0.024C0.51 0.024 0.505 0.027 0.496 0.039L0.302 0.307C0.402 0.412 0.428 0.43 0.491 0.438L0.491 0.461Z"/></symbol><symbol id="j" overflow="hidden"><path d="M0.315 0.34 0.315 0.485 0.293 0.485C0.287 0.47 0.281 0.465 0.269 0.465 0.258069 0.465896 0.247307 0.46825 0.237 0.472 0.212014 0.481298 0.185653 0.486367 0.159 0.487 0.068 0.487 0.002 0.425 0.002 0.341 0.002 0.275 0.043 0.229 0.144 0.186 0.212 0.156 0.24 0.131 0.24 0.099 0.24 0.06 0.21 0.034 0.165 0.034 0.095 0.034 0.049 0.079 0.028 0.166L0 0.166 0 0.001 0.025 0.001C0.036 0.022 0.042 0.029 0.051 0.029 0.0589527 0.0283258 0.0667314 0.0262966 0.074 0.023 0.108516 0.0095339 0.144992 0.00176601 0.182 4.47035e-11 0.273 0 0.336 0.062 0.336 0.152 0.336 0.223 0.297 0.266 0.198 0.308 0.13 0.337 0.102 0.362 0.102 0.396 0.102 0.429 0.13 0.454 0.168 0.454 0.196176 0.453335 0.223023 0.441881 0.243 0.422 0.265932 0.399527 0.282199 0.371146 0.29 0.34L0.315 0.34Z"/></symbol><symbol id="k" overflow="hidden"><path d="M0.718 0.306 0.375 0.306 0.375 0.281C0.461 0.276 0.476 0.265 0.476 0.211L0.476 0.106C0.476 0.055 0.447 0.033 0.38 0.033 0.317 0.033 0.275 0.052 0.242 0.095 0.198 0.151 0.177 0.237 0.177 0.357 0.177 0.566 0.24 0.677 0.361 0.677 0.410758 0.675535 0.458181 0.655568 0.494 0.621 0.538924 0.580372 0.573543 0.529643 0.595 0.473L0.62 0.473 0.62 0.707 0.593 0.707C0.579 0.672 0.568 0.661 0.549 0.661 0.532915 0.662695 0.517302 0.667447 0.503 0.675 0.454168 0.696838 0.401478 0.708736 0.348 0.71 0.156914 0.711261 0.000985128 0.557378-0.000276102 0.366291-0.000311954 0.360859-0.000219888 0.355428 1.97824e-08 0.35 0 0.144 0.146 0 0.356 0 0.451666-0.00202032 0.546389 0.0192579 0.632 0.062L0.632 0.189C0.632 0.261 0.643 0.273 0.718 0.281L0.718 0.306Z"/></symbol><symbol id="l" overflow="hidden"><path d="M0.19 0.676 0 0.676 0 0.652C0.035 0.649 0.051 0.631 0.051 0.594L0.051 0.084C0.051 0.047 0.034 0.027 0 0.024L0 0 0.239 0 0.239 0.024C0.206 0.025 0.19 0.044 0.19 0.084L0.19 0.676Z"/></symbol><symbol id="m" overflow="hidden"><path d="M0.192 0.461 0 0.461 0 0.437C0.044 0.428 0.053 0.419 0.053 0.378L0.053 0.084C0.053 0.043 0.046 0.035 0 0.024L0 0 0.239 0 0.239 0.024C0.204 0.029 0.192 0.043 0.192 0.081L0.192 0.461M0.122 0.691C0.0793093 0.691004 0.0445473 0.656687 0.044 0.614 0.044 0.569 0.077 0.536 0.121 0.536 0.165 0.536 0.199 0.569 0.199 0.613 0.199552 0.655522 0.165529 0.690441 0.123006 0.690993 0.122671 0.690998 0.122336 0.691 0.122 0.691Z"/></symbol><symbol id="n" overflow="hidden"><path d="M0.285 0.473 0.191 0.473 0.191 0.642 0.166 0.642C0.119795 0.57242 0.0638987 0.509789-6.31809e-09 0.456L0 0.429 0.052 0.429 0.052 0.105C0.052 0.04 0.095 0 0.164 0 0.231 0 0.271 0.03 0.312 0.112L0.287 0.123C0.267 0.085 0.251 0.071 0.23 0.071 0.202 0.071 0.191 0.088 0.191 0.128L0.191 0.429 0.285 0.429 0.285 0.473Z"/></symbol><symbol id="o" overflow="hidden"><path d="M0.464 0.666 0.313 0.666 0.313 0.642C0.356 0.64 0.368 0.633 0.368 0.609 0.367169 0.593446 0.363438 0.578184 0.357 0.564L0.289 0.372 0.217 0.557C0.197 0.608 0.197 0.608 0.197 0.616 0.197 0.63 0.209 0.639 0.234 0.641L0.25 0.642 0.25 0.666 0 0.666 0 0.642C0.023 0.639 0.029 0.636 0.035 0.627 0.038 0.627 0.083 0.529 0.1 0.487L0.22 0.192 0.202 0.139C0.185 0.089 0.159 0.057 0.136 0.057 0.126825 0.057497 0.119497 0.0648249 0.119 0.074L0.12 0.08 0.122 0.094C0.122 0.123 0.098 0.143 0.064 0.143 0.0303535 0.1447 0.00169976 0.118802 3.03984e-09 0.0851554-0.000103584 0.0831049-0.000103584 0.0810505 3.03984e-09 0.079 0 0.033 0.04 0 0.097 0 0.131 0 0.16 0.012 0.181 0.033 0.215213 0.0805498 0.240927 0.133669 0.257 0.19L0.406 0.587C0.423 0.629 0.433 0.639 0.464 0.642L0.464 0.666Z"/></symbol><symbol id="p" overflow="hidden"><path d="M0.619 0.227 0.59 0.227C0.572486 0.173582 0.542291 0.125202 0.502 0.086 0.461 0.049 0.405 0.031 0.328 0.031 0.267 0.031 0.248 0.044 0.248 0.087L0.248 0.559C0.248 0.634 0.262 0.647 0.349 0.651L0.349 0.676 0 0.676 0 0.651C0.068 0.647 0.086 0.631 0.086 0.58L0.086 0.096C0.086 0.045 0.073 0.034 0 0.025L0 0 0.578 0 0.619 0.227Z"/></symbol><symbol id="q" overflow="hidden"><path d="M0.226 0.487C0.099 0.487 0 0.382 0 0.246 0 0.103 0.095 0 0.226 0 0.355 0 0.451 0.104 0.451 0.243 0.451 0.383 0.355 0.487 0.226 0.487M0.227 0.456C0.285 0.456 0.304 0.401 0.304 0.237 0.304 0.083 0.284 0.031 0.226 0.031 0.167 0.031 0.147 0.082 0.147 0.228 0.147 0.404 0.165 0.456 0.227 0.456Z"/></symbol><symbol id="r" overflow="hidden"><path d="M0.608 0.171C0.570767 0.124927 0.522655 0.0888429 0.468 0.066 0.439402 0.0543841 0.408866 0.0482769 0.378 0.048 0.313707 0.0472292 0.253725 0.0802567 0.22 0.135 0.187249 0.20528 0.172473 0.282596 0.177 0.36 0.177 0.567 0.241 0.677 0.361 0.677 0.408 0.677 0.451 0.659 0.494 0.621 0.538697 0.580174 0.573276 0.529503 0.595 0.473L0.62 0.473 0.62 0.707 0.593 0.707C0.579 0.672 0.568 0.661 0.549 0.661 0.532915 0.662695 0.517302 0.667447 0.503 0.675 0.454168 0.696838 0.401478 0.708736 0.348 0.71 0.15747 0.711793 0.00156219 0.558791-0.000230304 0.368261-0.000281308 0.36284-0.000204512 0.357418 1.97931e-08 0.352-0.00679176 0.164346 0.139826 0.00671668 0.32748-7.50998e-05 0.336318-0.000394961 0.345164-0.0003699 0.354 2.78914e-08 0.425 0 0.484 0.017 0.539 0.054 0.575928 0.0801483 0.609219 0.111085 0.638 0.146L0.608 0.171Z"/></symbol><symbol id="s" overflow="hidden"><path d="M0.358 0.71C0.168754 0.718428 0.00850771 0.571845 8.01198e-05 0.382599-0.000344175 0.373071-0.000370901 0.36353 1.02551e-08 0.354-0.00789815 0.166389 0.137788 0.00789817 0.325398 2.14577e-09 0.334928-0.000401186 0.34447-0.000401186 0.354 2.14577e-09 0.561 0 0.708 0.148 0.708 0.355 0.714669 0.544316 0.566605 0.703194 0.377288 0.709863 0.370862 0.71009 0.36443 0.710135 0.358 0.71M0.357 0.677C0.467 0.677 0.531 0.556 0.531 0.348 0.531 0.143 0.469 0.033 0.354 0.033 0.239 0.033 0.177 0.143 0.177 0.345 0.177 0.561 0.24 0.677 0.357 0.677Z"/></symbol><symbol id="t" overflow="hidden"><path d="M0.083 0.091C0.083 0.047 0.058 0.027 0 0.025L0 0 0.316 0C0.532 0 0.676 0.138 0.676 0.345 0.676 0.551 0.536 0.676 0.305 0.676L0 0.676 0 0.651C0.064 0.645 0.083 0.63 0.083 0.584L0.083 0.091M0.245 0.607C0.245 0.63 0.265 0.642 0.304 0.642 0.376 0.642 0.427 0.609 0.461 0.54 0.490528 0.474051 0.504553 0.402213 0.502 0.33 0.506059 0.251293 0.488048 0.173018 0.45 0.104 0.415863 0.0575709 0.360528 0.0315975 0.303 0.035 0.258 0.035 0.245 0.048 0.245 0.093L0.245 0.607Z"/></symbol><symbol id="u" overflow="hidden"><path d="M0.689 0.025C0.67302 0.0241019 0.657644 0.0312273 0.648 0.044L0.447 0.329C0.488297 0.338926 0.52667 0.358455 0.559 0.386 0.589022 0.415385 0.605345 0.456012 0.604 0.498 0.604 0.613 0.505 0.676 0.322 0.676L0 0.676 0 0.651C0.074 0.646 0.088 0.631 0.088 0.559L0.088 0.117C0.088 0.044 0.078 0.034 0 0.025L0 0 0.338 0 0.338 0.025C0.26 0.035 0.25 0.046 0.25 0.117L0.25 0.313 0.277 0.313 0.484 0 0.689 0 0.689 0.025M0.25 0.6C0.250916 0.609309 0.253278 0.618418 0.257 0.627 0.263 0.637 0.279 0.642 0.304 0.642 0.396 0.642 0.433 0.599 0.433 0.494 0.433 0.43 0.418 0.391 0.386 0.37 0.36 0.353 0.326 0.346 0.25 0.345L0.25 0.6Z"/></symbol><symbol id="v" overflow="hidden"><path d="M0.193 0.666 0.002 0.666 0.002 0.642C0.046 0.635 0.056 0.625 0.056 0.583L0.056 0.082C0.056 0.041 0.048 0.032 0 0.024L0 0 0.273 0 0.273 0.021C0.212 0.024 0.195 0.044 0.195 0.111L0.195 0.252C0.243 0.205 0.269 0.192 0.313 0.192 0.425 0.192 0.505 0.296 0.505 0.444 0.505 0.583 0.43 0.678 0.319 0.678 0.26 0.678 0.224 0.655 0.193 0.597L0.193 0.666M0.195 0.551C0.195 0.558 0.204 0.574 0.216 0.587 0.236 0.609 0.259 0.621 0.281 0.621 0.333 0.621 0.357 0.561 0.357 0.43 0.357 0.306 0.329 0.247 0.272 0.247 0.239 0.247 0.21 0.27 0.195 0.308L0.195 0.551Z"/></symbol><symbol id="w" overflow="hidden"><path d="M0.664 0.609 0.664 0.1C0.664 0.044 0.65 0.032 0.575 0.025L0.575 0 0.907 0 0.907 0.025C0.829 0.035 0.819 0.046 0.819 0.117L0.819 0.559C0.819 0.631 0.834 0.646 0.907 0.651L0.907 0.676 0.655 0.676 0.455 0.204 0.255 0.676 0.002 0.676 0.002 0.651C0.075 0.645 0.091 0.632 0.091 0.58L0.091 0.105C0.091 0.045 0.078 0.033 0 0.025L0 0 0.234 0 0.234 0.025C0.152 0.031 0.133 0.05 0.133 0.124L0.133 0.594 0.385 0 0.412 0 0.664 0.609Z"/></symbol><symbol id="x" overflow="hidden"><path d="M0.488 0.326 0.488 0.096C0.488 0.047 0.471 0.033 0.398 0.025L0.398 0 0.738 0 0.738 0.025C0.666 0.034 0.65 0.047 0.65 0.096L0.65 0.58C0.65 0.63 0.67 0.646 0.738 0.651L0.738 0.676 0.398 0.676 0.398 0.651C0.468 0.646 0.488 0.63 0.488 0.58L0.488 0.373 0.247 0.373 0.247 0.58C0.247 0.63 0.267 0.646 0.337 0.651L0.337 0.676 0 0.676 0 0.651C0.067 0.645 0.085 0.63 0.085 0.58L0.085 0.096C0.085 0.047 0.07 0.034 0 0.025L0 0 0.337 0 0.337 0.025C0.264 0.033 0.247 0.047 0.247 0.096L0.247 0.326 0.488 0.326Z"/></symbol><symbol id="y" overflow="hidden"><path d="M0.449 0.494 0.449 0.711 0.419 0.711C0.412 0.685 0.404 0.677 0.387 0.677 0.372492 0.678341 0.358303 0.682058 0.345 0.688 0.307615 0.702218 0.267997 0.709668 0.228 0.71 0.092 0.71 0.009 0.633 0.009 0.507 0.009 0.419 0.061 0.356 0.18 0.299L0.247 0.267C0.335 0.225 0.359 0.199 0.359 0.147 0.359 0.078 0.31 0.033 0.233 0.033 0.175284 0.032833 0.120988 0.0603527 0.087 0.107 0.0576174 0.14884 0.0378146 0.196639 0.029 0.247L0 0.247 0 0 0.029 0C0.035 0.025 0.043 0.034 0.059 0.034 0.0730503 0.0325032 0.0868384 0.0291403 0.1 0.024 0.141593 0.00844599 0.185595 0.000322443 0.23 2.07126e-09 0.378 0 0.478 0.085 0.478 0.211 0.477032 0.28712 0.434944 0.356756 0.368 0.393L0.221 0.466C0.14 0.506 0.118 0.531 0.118 0.579 0.118 0.641 0.16 0.679 0.228 0.679 0.274977 0.678133 0.3195 0.657862 0.351 0.623 0.385713 0.587227 0.409928 0.542602 0.421 0.494L0.449 0.494Z"/></symbol><symbol id="z" overflow="hidden"><path d="M0.577 0.676 0 0.676 0 0.651C0.069 0.647 0.088 0.631 0.088 0.58L0.088 0.096C0.088 0.044 0.074 0.033 0 0.025L0 0 0.585 0 0.625 0.208 0.597 0.208C0.579329 0.159777 0.549333 0.117025 0.51 0.084 0.459269 0.0456712 0.396448 0.0268604 0.333 0.031 0.269 0.031 0.25 0.044 0.25 0.087L0.25 0.329C0.359 0.329 0.4 0.29 0.412 0.174L0.438 0.174 0.438 0.512 0.412 0.512C0.397 0.398 0.358 0.362 0.25 0.363L0.25 0.595C0.25 0.633 0.263 0.642 0.315 0.642 0.478 0.642 0.527 0.608 0.552 0.475L0.577 0.475 0.577 0.676Z"/></symbol><symbol id="A" overflow="hidden"><path d="M0.68 0.025 0.676 0.025C0.637 0.025 0.621 0.046 0.571 0.164L0.348 0.69 0.32 0.69 0.098 0.142C0.06 0.049 0.048 0.034 0 0.025L0 0 0.203 0 0.203 0.025C0.144 0.029 0.121 0.04 0.121 0.066 0.121 0.079 0.129 0.104 0.15 0.158L0.165 0.197 0.39 0.197C0.412829 0.154557 0.428378 0.108586 0.436 0.061 0.436 0.04 0.423 0.03 0.388 0.028 0.377286 0.0276006 0.366602 0.026599 0.356 0.025L0.356 0 0.68 0 0.68 0.025M0.18 0.236 0.274 0.479 0.375 0.236 0.18 0.236Z"/></symbol><symbol id="B" overflow="hidden"><path d="M0.252 0.688 0 0.579 0 0.553C0.00690423 0.555029 0.0136008 0.557708 0.02 0.561 0.047 0.571 0.072 0.578 0.085 0.578 0.11 0.578 0.121 0.556 0.121 0.509L0.121 0.124C0.121 0.042 0.101 0.025 0.002 0.024L0.002 0 0.377 0 0.377 0.024C0.286 0.026 0.269 0.041 0.269 0.118L0.269 0.688 0.252 0.688Z"/></symbol><symbol id="C" overflow="hidden"><path d="M0.243 0.116 0 0.116 0 0 0.243 0 0.243 0.116Z"/></symbol><symbol id="D" overflow="hidden"><path d="M0.214 0.694 0.003 0.694 0.003 0.669C0.023 0.669 0.04 0.654 0.088 0.597L0.088 0.123C0.088 0.066 0.073 0.052 0 0.043L0 0.018 0.227 0.018 0.227 0.043C0.15 0.052 0.132 0.071 0.132 0.142L0.132 0.544 0.579 0 0.607 0 0.607 0.589C0.607 0.646 0.62 0.659 0.685 0.669L0.685 0.694 0.47 0.694 0.47 0.669C0.544 0.662 0.563 0.641 0.563 0.57L0.563 0.265 0.214 0.694Z"/></symbol><symbol id="E" overflow="hidden"><path d="M0.567 0.676 0 0.676 0 0.651C0.069 0.647 0.088 0.632 0.088 0.58L0.088 0.096C0.088 0.044 0.074 0.033 0 0.025L0 0 0.36 0 0.36 0.025C0.268 0.029 0.25 0.041 0.25 0.096L0.25 0.329C0.352 0.327 0.389 0.29 0.403 0.174L0.428 0.174 0.428 0.512 0.403 0.512C0.385 0.398 0.35 0.363 0.25 0.363L0.25 0.595C0.25 0.632 0.263 0.642 0.314 0.642 0.406 0.642 0.465 0.625 0.496 0.59 0.518 0.565 0.529 0.538 0.543 0.475L0.567 0.475 0.567 0.676Z"/></symbol><symbol id="F" overflow="hidden"><path d="M0.606 0.241 0.58 0.241C0.553 0.147 0.53 0.107 0.483 0.074 0.416724 0.0434197 0.343819 0.030008 0.271 0.035L0.197 0.035 0.576 0.66 0.576 0.676 0.052 0.676 0.031 0.47 0.059 0.47C0.107 0.609 0.151 0.64 0.299 0.638L0.382 0.641 0 0.016 0 0 0.58 0 0.606 0.241Z"/></symbol><symbol id="G" overflow="hidden"><path d="M0.211 0.025 0.125 0.025C0.092 0.025 0.076 0.042 0.076 0.077L0.076 0.749C0.076 0.78 0.089 0.793 0.121 0.793L0.211 0.793 0.211 0.818 0 0.818 0 0 0.211 0 0.211 0.025Z"/></symbol><symbol id="H" overflow="hidden"><path d="M0.445 0.137 0.432 0.142C0.395 0.085 0.382 0.076 0.337 0.076L0.098 0.076 0.266 0.252C0.355 0.345 0.394 0.421 0.394 0.499 0.394 0.599 0.313 0.676 0.209 0.676 0.15444 0.676389 0.102212 0.653902 0.065 0.614 0.033 0.58 0.018 0.548 0.001 0.477L0.022 0.472C0.062 0.57 0.098 0.602 0.167 0.602 0.240899 0.605973 0.304027 0.549286 0.308 0.475386 0.308258 0.470594 0.308258 0.465792 0.308 0.461 0.308 0.383 0.262 0.29 0.178 0.201L0 0.012 0 0 0.39 0 0.445 0.137Z"/></symbol><symbol id="I" overflow="hidden"><path d="M0.23 0.69C0.180111 0.691668 0.131705 0.672884 0.096 0.638 0.038 0.582 0 0.467 0 0.35 0 0.241 0.033 0.124 0.08 0.068 0.115821 0.0243457 0.169534-0.000671442 0.226 3.69549e-09 0.277 0 0.32 0.017 0.356 0.052 0.414 0.107 0.452 0.223 0.452 0.344 0.452 0.549 0.361 0.69 0.23 0.69M0.227 0.664C0.311 0.664 0.356 0.551 0.356 0.342 0.356 0.133 0.312 0.026 0.226 0.026 0.14 0.026 0.096 0.133 0.096 0.341 0.096 0.553 0.141 0.664 0.227 0.664Z"/></symbol><symbol id="J" overflow="hidden"><path d="M0 0.025 0 0 0.211 0 0.211 0.818 0 0.818 0 0.793 0.086 0.793C0.119 0.793 0.135 0.776 0.135 0.741L0.135 0.069C0.135 0.038 0.121 0.025 0.09 0.025L0 0.025Z"/></symbol><symbol id="K" overflow="hidden"><path d="M0.09 0.29C0.081 0.304 0.08 0.305 0.074 0.305 0.051 0.305 0 0.273 0 0.256 0 0.254 0 0.252 0.008 0.239L0.135 0.03C0.139979 0.0211203 0.145317 0.0124465 0.151 0.004 0.153 0 0.158 0 0.163 0 0.184 0 0.231 0.027 0.236 0.048 0.268 0.198 0.327 0.341 0.417 0.465 0.468 0.535 0.536 0.614 0.635 0.688 0.652 0.701 0.664 0.71 0.664 0.719 0.664 0.726 0.659 0.726 0.653 0.726 0.606 0.726 0.463 0.591 0.406 0.524 0.306945 0.410709 0.231474 0.278804 0.184 0.136L0.09 0.29Z"/></symbol><symbol id="L" overflow="hidden"><path d="M0.327 0.001C0.369612 0.0156335 0.414022 0.024381 0.459 0.027L0.521 0.034 0.521 0.057C0.477 0.059 0.465 0.072 0.465 0.115L0.465 0.475 0.264 0.475 0.264 0.451C0.314 0.447 0.326 0.435 0.326 0.392L0.326 0.109C0.293 0.076 0.272 0.065 0.244 0.065 0.203 0.065 0.188 0.085 0.188 0.136L0.188 0.475 0 0.475 0 0.451C0.041 0.443 0.049 0.434 0.049 0.392L0.049 0.14C0.049 0.052 0.099 0 0.182 0 0.234 0 0.269 0.016 0.327 0.066L0.327 0.001Z"/></symbol><symbol id="M" overflow="hidden"><path d="M0.18 0.676 0 0.585 0 0.571 0.027 0.582C0.0413081 0.588071 0.0565046 0.591786 0.072 0.593 0.093 0.593 0.102 0.578 0.102 0.546L0.102 0.093C0.102 0.06 0.094 0.037 0.078 0.028 0.063 0.019 0.049 0.016 0.007 0.015L0.007 0 0.283 0 0.283 0.015C0.204 0.016 0.188 0.026 0.188 0.074L0.188 0.674 0.18 0.676Z"/></symbol><symbol id="N" overflow="hidden"><path d="M0.412 0.698C0.324138 0.696632 0.238739 0.668746 0.167 0.618 0.0604753 0.54442-0.00220006 0.422447-4.29153e-09 0.293 0 0.206 0.027 0.118 0.07 0.068 0.108662 0.0235529 0.165107-0.001371 0.224 3.69549e-09 0.348 0 0.434 0.095 0.434 0.233 0.434 0.361 0.361 0.442 0.246 0.442 0.202 0.442 0.181 0.435 0.118 0.397 0.143467 0.546645 0.263498 0.662216 0.414 0.682L0.412 0.698M0.208 0.396C0.294 0.396 0.344 0.324 0.344 0.199 0.344 0.089 0.305 0.028 0.235 0.028 0.147 0.028 0.093 0.122 0.093 0.277 0.093 0.328 0.101 0.356 0.121 0.371 0.146589 0.388404 0.177075 0.397164 0.208 0.396Z"/></symbol><symbol id="O" overflow="hidden"><path d="M0.695 0.059C0.673385 0.0516992 0.650805 0.0476549 0.628 0.047 0.580742 0.0468176 0.535374 0.065541 0.502 0.099 0.481919 0.119428 0.465961 0.143534 0.455 0.17 0.515986 0.184131 0.571356 0.216169 0.614 0.262 0.676106 0.329474 0.709779 0.418312 0.708 0.51 0.715835 0.699272 0.568751 0.859058 0.379479 0.866892 0.370991 0.867244 0.362492 0.86728 0.354 0.867 0.162964 0.871577 0.00438888 0.720422-0.000188121 0.529387-0.000366909 0.521924-0.000304168 0.514458 2.1419e-09 0.507 0 0.416 0.031 0.332 0.089 0.268 0.128531 0.222916 0.180288 0.190264 0.238 0.174 0.250907 0.14197 0.269928 0.11276 0.294 0.088 0.355599 0.030029 0.437427-0.00155362 0.522 6.97374e-09 0.583 0 0.626 0.008 0.701 0.035L0.695 0.059M0.355 0.834C0.467 0.834 0.531 0.714 0.531 0.506 0.531 0.3 0.469 0.19 0.354 0.19 0.238 0.19 0.177 0.299 0.177 0.507 0.177 0.717 0.241 0.834 0.355 0.834Z"/></symbol><symbol id="P" overflow="hidden"><path d="M0.739 0.025C0.714 0.026 0.703 0.031 0.69 0.046L0.385 0.424C0.573 0.618 0.609 0.643 0.706 0.651L0.706 0.676 0.417 0.676 0.417 0.651C0.429038 0.650529 0.44105 0.649528 0.453 0.648 0.489 0.646 0.502 0.638 0.502 0.618 0.502 0.602 0.497 0.594 0.466 0.563L0.249 0.345 0.249 0.559C0.249 0.63 0.264 0.646 0.338 0.651L0.338 0.676 0 0.676 0 0.651C0.069 0.647 0.087 0.632 0.087 0.58L0.087 0.096C0.087 0.045 0.072 0.033 0 0.025L0 0 0.337 0 0.337 0.025C0.265 0.034 0.249 0.047 0.249 0.096L0.249 0.292 0.276 0.317 0.458 0.09C0.477 0.066 0.482 0.057 0.482 0.046 0.482 0.033 0.468 0.028 0.435 0.026L0.403 0.025 0.403 0 0.739 0 0.739 0.025Z"/></symbol><symbol id="Q" overflow="hidden"><path d="M0.46 0.231 0.358 0.231 0.358 0.676 0.314 0.676 0 0.231 0 0.167 0.281 0.167 0.281 0 0.358 0 0.358 0.167 0.46 0.167 0.46 0.231M0.28 0.231 0.04 0.231 0.28 0.574 0.28 0.231Z"/></symbol><symbol id="R" overflow="hidden"><path d="M0.314 0.001C0.357403 0.0136902 0.401952 0.0220641 0.447 0.026L0.509 0.034 0.509 0.057C0.463 0.06 0.45 0.073 0.45 0.115L0.45 0.69 0.235 0.69 0.235 0.666C0.302 0.661 0.311 0.654 0.311 0.608L0.311 0.425C0.268 0.471 0.238 0.487 0.192 0.487 0.082 0.487 0 0.38 0 0.235 0 0.099 0.076 0 0.181 0 0.234 0 0.267 0.016 0.314 0.066L0.314 0.001M0.311 0.126C0.311 0.12 0.301 0.103 0.289 0.09 0.269 0.067 0.248 0.056 0.226 0.056 0.173 0.056 0.148 0.116 0.148 0.243 0.148 0.372 0.175 0.431 0.233 0.431 0.266 0.431 0.297 0.407 0.311 0.369L0.311 0.126Z"/></symbol><symbol id="S" overflow="hidden"><path d="M0.11 0.344C0.14571 0.346983 0.181663 0.343252 0.216 0.333 0.278256 0.310863 0.31908 0.251042 0.317 0.185 0.317 0.101 0.26 0.036 0.186 0.036 0.159 0.036 0.139 0.043 0.102 0.067 0.072 0.085 0.055 0.092 0.038 0.092 0.015 0.092 0 0.078 0 0.057 0 0.022 0.043 0 0.113 0 0.19 0 0.269 0.026 0.316 0.067 0.36362 0.108862 0.390334 0.16961 0.389 0.233 0.390514 0.280092 0.374476 0.326067 0.344 0.362 0.320975 0.386056 0.29251 0.404232 0.261 0.415 0.33 0.462 0.355 0.499 0.355 0.553 0.355 0.634 0.291 0.69 0.199 0.69 0.151052 0.690564 0.104646 0.673073 0.069 0.641 0.039 0.614 0.024 0.588 0.002 0.528L0.017 0.524C0.058 0.597 0.103 0.63 0.166 0.63 0.231 0.63 0.276 0.586 0.276 0.523 0.275745 0.486704 0.261404 0.451926 0.236 0.426 0.200452 0.392797 0.157122 0.369069 0.11 0.357L0.11 0.344Z"/></symbol><symbol id="T" overflow="hidden"><path d="M0.149 0.597 0.345 0.597C0.361 0.597 0.365 0.599 0.368 0.606L0.406 0.695 0.397 0.702C0.382 0.681 0.372 0.676 0.351 0.676L0.142 0.676 0.033 0.439 0.032 0.434C0.032 0.429 0.036 0.426 0.044 0.426 0.0824468 0.424942 0.120526 0.418202 0.157 0.406 0.272 0.369 0.325 0.307 0.325 0.208 0.325 0.112 0.264 0.037 0.186 0.037 0.166 0.037 0.149 0.044 0.119 0.066 0.087 0.089 0.064 0.099 0.043 0.099 0.014 0.099 0 0.087 0 0.062 0 0.024 0.047 0 0.122 0 0.206 0 0.278 0.027 0.328 0.078 0.374635 0.125102 0.399002 0.189838 0.395 0.256 0.398366 0.319515 0.373037 0.381186 0.326 0.424 0.282 0.468 0.225 0.491 0.107 0.512L0.149 0.597Z"/></symbol><symbol id="U" overflow="hidden"><path d="M0.685 0.694 0.472 0.694 0.472 0.669C0.543 0.664 0.558 0.657 0.558 0.625 0.558 0.609 0.555 0.597 0.538 0.554L0.411 0.225 0.273 0.559C0.254 0.604 0.25 0.616 0.25 0.631 0.25 0.654 0.265 0.665 0.303 0.667L0.336 0.669 0.336 0.694 0 0.694 0 0.669C0.05 0.662 0.059 0.654 0.084 0.599L0.34 0 0.367 0 0.595 0.587C0.619 0.649 0.633 0.662 0.685 0.669L0.685 0.694Z"/></symbol><symbol id="V" overflow="hidden"><path d="M0.222 0.117C0.222 0.043 0.211 0.032 0.125 0.025L0.125 0 0.482 0 0.482 0.025C0.395 0.031 0.384 0.041 0.384 0.117L0.384 0.644C0.507 0.64 0.559 0.594 0.576 0.475L0.605 0.475 0.603 0.676 0.003 0.676 0 0.475 0.029 0.475C0.046 0.594 0.098 0.64 0.222 0.644L0.222 0.117Z"/></symbol><symbol id="W" overflow="hidden"><path d="M0.962 0.691 0.78 0.691 0.78 0.666C0.834 0.663 0.849 0.653 0.849 0.622 0.849028 0.607707 0.846662 0.593511 0.842 0.58L0.73 0.237 0.622 0.573C0.615116 0.591041 0.610416 0.609842 0.608 0.629 0.608 0.653 0.623 0.662 0.667 0.665L0.68 0.666 0.68 0.691 0.368 0.691 0.368 0.666C0.409 0.664 0.429 0.655 0.44 0.631L0.475 0.535 0.357 0.227 0.237 0.591C0.232953 0.601565 0.23059 0.612701 0.23 0.624 0.23 0.653 0.242 0.662 0.294 0.666L0.294 0.691 0 0.691 0 0.666C0.042 0.66 0.052 0.651 0.069 0.602L0.281 0 0.309 0 0.495 0.477 0.666 0 0.693 0 0.893 0.602C0.906 0.642 0.929 0.663 0.962 0.666L0.962 0.691Z"/></symbol><symbol id="X" overflow="hidden"><path d="M0.454 0.604 0.454 0.657 0.324 0.657C0.28847 0.671604 0.250415 0.67908 0.212 0.679 0.093 0.679 0.009 0.613 0.009 0.518 0.00958462 0.48311 0.0223152 0.449515 0.045 0.423 0.0692068 0.397061 0.0994305 0.377484 0.133 0.366 0.054 0.339 0.014 0.301 0.014 0.249 0.014 0.208 0.032 0.19 0.096 0.167 0.033 0.158 0 0.133 0 0.092 0 0.034 0.075 0 0.201 0 0.367 0 0.455 0.052 0.455 0.151 0.455 0.228 0.393 0.274 0.291 0.274L0.226 0.274C0.146 0.274 0.126 0.281 0.126 0.309 0.126 0.339 0.154 0.361 0.194 0.361L0.239 0.36C0.276173 0.357488 0.313209 0.366572 0.345 0.386 0.388767 0.409687 0.415171 0.456282 0.413 0.506 0.413 0.546 0.401 0.576 0.373 0.604L0.454 0.604M0.296 0.154C0.35 0.154 0.376 0.137 0.376 0.104 0.376 0.058 0.321 0.032 0.222 0.032 0.134 0.032 0.088 0.055 0.088 0.099 0.088 0.12 0.095 0.131 0.123 0.154L0.296 0.154M0.212 0.648C0.259 0.648 0.278 0.61 0.278 0.517 0.278 0.424 0.259 0.388 0.212 0.388 0.164 0.388 0.146 0.424 0.146 0.517 0.146 0.611 0.165 0.648 0.212 0.648Z"/></symbol><symbol id="Y" overflow="hidden"><path d="M0.607 0.585C0.607 0.644 0.621 0.66 0.685 0.67L0.685 0.695 0.465 0.695 0.465 0.67C0.543 0.664 0.563 0.644 0.563 0.571L0.563 0.266C0.563 0.118 0.507 0.049 0.388 0.049 0.286 0.049 0.241 0.108 0.241 0.244L0.241 0.578C0.241 0.618 0.247 0.64 0.262 0.654 0.274 0.664 0.29 0.668 0.338 0.67L0.338 0.695 0 0.695 0 0.67C0.07 0.663 0.082 0.65 0.082 0.578L0.082 0.244C0.082 0.146 0.103 0.097 0.164 0.053 0.218512 0.0162186 0.283281-0.0023367 0.349-6.25849e-10 0.423 0 0.493 0.022 0.536 0.059 0.581 0.097 0.607 0.173 0.607 0.266L0.607 0.585Z"/></symbol><symbol id="Z" overflow="hidden"><path d="M0.093 0.096C0.093 0.046 0.075 0.032 0 0.025L0 0 0.35 0 0.35 0.025C0.274 0.03 0.255 0.044 0.255 0.096L0.255 0.58C0.255 0.632 0.276 0.648 0.35 0.651L0.35 0.676 0 0.676 0 0.651C0.072 0.646 0.093 0.631 0.093 0.58L0.093 0.096Z"/></symbol><path d="M2.966 3.801 397.487 3.801" stroke="#000000" stroke-width="0.797" stroke-miterlimit="10" fill="none"/><use width="100%" height="100%" xlink:href="#a" transform="matrix(8.9664 0 0 -8.9664 24.38 20.937)"></use><use width="100%" height="100%" xlink:href="#b" transform="matrix(8.9664 0 0 -8.9664 30.44 21.062)"></use><use width="100%" height="100%" xlink:href="#c" transform="matrix(8.9664 0 0 -8.9664 34.386 20.937)"></use><use width="100%" height="100%" xlink:href="#d" transform="matrix(8.9664 0 0 -8.9664 39.407 21.062)"></use><use width="100%" height="100%" xlink:href="#e" transform="matrix(8.9664 0 0 -8.9664 43.308 20.937)"></use><use width="100%" height="100%" xlink:href="#f" transform="matrix(8.9664 0 0 -8.9664 48.293 20.937)"></use><use width="100%" height="100%" xlink:href="#g" transform="matrix(8.9664 0 0 -8.9664 55.843 21.062)"></use><use width="100%" height="100%" xlink:href="#h" transform="matrix(8.9664 0 0 -8.9664 60.362 20.937)"></use><use width="100%" height="100%" xlink:href="#i" transform="matrix(8.9664 0 0 -8.9664 64.28 20.937)"></use><use width="100%" height="100%" xlink:href="#j" transform="matrix(8.9664 0 0 -8.9664 69.292 21.062)"></use><path d="M94.024 16.578 94.024 7.114" stroke="#000000" stroke-width="0.398" stroke-miterlimit="10" fill="none"/><use width="100%" height="100%" xlink:href="#k" transform="matrix(8.9664 0 0 -8.9664 148.068 13.91)"></use><use width="100%" height="100%" xlink:href="#b" transform="matrix(8.9664 0 0 -8.9664 154.936 13.864)"></use><use width="100%" height="100%" xlink:href="#c" transform="matrix(8.9664 0 0 -8.9664 158.881 13.739)"></use><use width="100%" height="100%" xlink:href="#b" transform="matrix(8.9664 0 0 -8.9664 163.902 13.864)"></use><use width="100%" height="100%" xlink:href="#h" transform="matrix(8.9664 0 0 -8.9664 167.92 13.739)"></use><use width="100%" height="100%" xlink:href="#g" transform="matrix(8.9664 0 0 -8.9664 171.865 13.864)"></use><use width="100%" height="100%" xlink:href="#l" transform="matrix(8.9664 0 0 -8.9664 176.267 13.739)"></use><use width="100%" height="100%" xlink:href="#m" transform="matrix(8.9664 0 0 -8.9664 178.76 13.739)"></use><use width="100%" height="100%" xlink:href="#n" transform="matrix(8.9664 0 0 -8.9664 181.288 13.847)"></use><use width="100%" height="100%" xlink:href="#o" transform="matrix(8.9664 0 0 -8.9664 184.238 15.577)"></use><path d="M242.29 16.578 242.29 7.114" stroke="#000000" stroke-width="0.398" stroke-miterlimit="10" fill="none"/><use width="100%" height="100%" xlink:href="#p" transform="matrix(8.9664 0 0 -8.9664 279.623 13.739)"></use><use width="100%" height="100%" xlink:href="#q" transform="matrix(8.9664 0 0 -8.9664 285.658 13.864)"></use><use width="100%" height="100%" xlink:href="#d" transform="matrix(8.9664 0 0 -8.9664 290.141 13.864)"></use><use width="100%" height="100%" xlink:href="#g" transform="matrix(8.9664 0 0 -8.9664 294.122 13.864)"></use><use width="100%" height="100%" xlink:href="#l" transform="matrix(8.9664 0 0 -8.9664 298.525 13.739)"></use><use width="100%" height="100%" xlink:href="#m" transform="matrix(8.9664 0 0 -8.9664 301.017 13.739)"></use><use width="100%" height="100%" xlink:href="#n" transform="matrix(8.9664 0 0 -8.9664 303.546 13.847)"></use><use width="100%" height="100%" xlink:href="#o" transform="matrix(8.9664 0 0 -8.9664 306.496 15.577)"></use><path d="M347.998 16.578 347.998 7.114" stroke="#000000" stroke-width="0.398" stroke-miterlimit="10" fill="none"/><use width="100%" height="100%" xlink:href="#r" transform="matrix(8.9664 0 0 -8.9664 354.614 21.107)"></use><use width="100%" height="100%" xlink:href="#r" transform="matrix(8.9664 0 0 -8.9664 361.088 21.107)"></use><use width="100%" height="100%" xlink:href="#s" transform="matrix(8.9664 0 0 -8.9664 379.137 21.107)"></use><use width="100%" height="100%" xlink:href="#t" transform="matrix(8.9664 0 0 -8.9664 385.925 20.937)"></use><path d="M96.216 18.521 240.496 18.521M244.482 18.521 346.205 18.521" stroke="#000000" stroke-width="0.299" stroke-miterlimit="10" fill="none"/><path d="M94.024 31.049 94.024 21.585" stroke="#000000" stroke-width="0.398" stroke-miterlimit="10" fill="none"/><use width="100%" height="100%" xlink:href="#u" transform="matrix(8.78707 0 0 -8.9664 100.43 28.209)"></use><use width="100%" height="100%" xlink:href="#b" transform="matrix(8.78707 0 0 -8.9664 106.765 28.335)"></use><use width="100%" height="100%" xlink:href="#v" transform="matrix(8.78707 0 0 -8.9664 110.614 30.047)"></use><use width="100%" height="100%" xlink:href="#w" transform="matrix(8.78707 0 0 -8.9664 123.434 28.209)"></use><use width="100%" height="100%" xlink:href="#x" transform="matrix(8.78707 0 0 -8.9664 131.79 28.209)"></use><use width="100%" height="100%" xlink:href="#u" transform="matrix(8.78707 0 0 -8.9664 149.716 28.209)"></use><use width="100%" height="100%" xlink:href="#u" transform="matrix(8.78707 0 0 -8.9664 156.06 28.209)"></use><use width="100%" height="100%" xlink:href="#y" transform="matrix(8.78707 0 0 -8.9664 172.905 28.38)"></use><use width="100%" height="100%" xlink:href="#z" transform="matrix(8.78707 0 0 -8.9664 177.624 28.209)"></use><use width="100%" height="100%" xlink:href="#u" transform="matrix(8.78707 0 0 -8.9664 183.573 28.209)"></use><use width="100%" height="100%" xlink:href="#y" transform="matrix(8.9664 0 0 -8.9664 199.708 28.38)"></use><use width="100%" height="100%" xlink:href="#A" transform="matrix(8.9664 0 0 -8.9664 204.46 28.209)"></use><use width="100%" height="100%" xlink:href="#s" transform="matrix(8.78707 0 0 -8.9664 223.732 28.38)"></use><use width="100%" height="100%" xlink:href="#A" transform="matrix(8.78707 0 0 -8.9664 229.98 28.209)"></use><path d="M242.29 31.049 242.29 21.585" stroke="#000000" stroke-width="0.398" stroke-miterlimit="10" fill="none"/><use width="100%" height="100%" xlink:href="#y" transform="matrix(8.9664 0 0 -8.9664 250.14 28.38)"></use><use width="100%" height="100%" xlink:href="#y" transform="matrix(8.9664 0 0 -8.9664 255.125 28.38)"></use><use width="100%" height="100%" xlink:href="#u" transform="matrix(8.9664 0 0 -8.9664 273.964 28.209)"></use><use width="100%" height="100%" xlink:href="#y" transform="matrix(8.9664 0 0 -8.9664 280.518 28.38)"></use><use width="100%" height="100%" xlink:href="#s" transform="matrix(8.9664 0 0 -8.9664 298.433 28.38)"></use><use width="100%" height="100%" xlink:href="#y" transform="matrix(8.9664 0 0 -8.9664 305.409 28.38)"></use><use width="100%" height="100%" xlink:href="#B" transform="matrix(8.9664 0 0 -8.9664 322.983 28.209)"></use><use width="100%" height="100%" xlink:href="#C" transform="matrix(8.9664 0 0 -8.9664 327.278 26.676)"></use><use width="100%" height="100%" xlink:href="#D" transform="matrix(8.9664 0 0 -8.9664 330.012 28.37)"></use><use width="100%" height="100%" xlink:href="#E" transform="matrix(8.9664 0 0 -8.9664 336.486 28.209)"></use><path d="M347.998 31.049 347.998 21.585" stroke="#000000" stroke-width="0.398" stroke-miterlimit="10" fill="none"/><path d="M4.958 32.991 92.231 32.991M96.216 32.991 240.496 32.991M244.482 32.991 346.205 32.991M350.19 32.991 395.494 32.991" stroke="#000000" stroke-width="0.299" stroke-miterlimit="10" fill="none"/><use width="100%" height="100%" xlink:href="#F" transform="matrix(8.9664 0 0 -8.9664 28.347 42.68)"></use><use width="100%" height="100%" xlink:href="#y" transform="matrix(8.9664 0 0 -8.9664 34.39 42.85)"></use><use width="100%" height="100%" xlink:href="#u" transform="matrix(8.9664 0 0 -8.9664 39.295 42.68)"></use><use width="100%" height="100%" xlink:href="#z" transform="matrix(8.9664 0 0 -8.9664 45.68 42.68)"></use><use width="100%" height="100%" xlink:href="#G" transform="matrix(8.9664 0 0 -8.9664 54.546 44.079)"></use><use width="100%" height="100%" xlink:href="#H" transform="matrix(8.9664 0 0 -8.9664 57.012 42.68)"></use><use width="100%" height="100%" xlink:href="#I" transform="matrix(8.9664 0 0 -8.9664 61.441 42.806)"></use><use width="100%" height="100%" xlink:href="#J" transform="matrix(8.9664 0 0 -8.9664 66.014 44.079)"></use><path d="M94.024 45.519 94.024 36.055" stroke="#000000" stroke-width="0.398" stroke-miterlimit="10" fill="none"/><use width="100%" height="100%" xlink:href="#K" transform="matrix(8.9664 0 0 -8.9664 103.563 42.922)"></use><path d="M242.29 45.519 242.29 36.055M347.998 45.519 347.998 36.055" stroke="#000000" stroke-width="0.398" stroke-miterlimit="10" fill="none"/><use width="100%" height="100%" xlink:href="#r" transform="matrix(8.9664 0 0 -8.9664 15.955 52.314)"></use><use width="100%" height="100%" xlink:href="#q" transform="matrix(8.9664 0 0 -8.9664 22.214 52.27)"></use><use width="100%" height="100%" xlink:href="#L" transform="matrix(8.9664 0 0 -8.9664 26.616 52.27)"></use><use width="100%" height="100%" xlink:href="#c" transform="matrix(8.9664 0 0 -8.9664 31.647 52.144)"></use><use width="100%" height="100%" xlink:href="#n" transform="matrix(8.9664 0 0 -8.9664 36.623 52.252)"></use><use width="100%" height="100%" xlink:href="#b" transform="matrix(8.9664 0 0 -8.9664 39.654 52.27)"></use><use width="100%" height="100%" xlink:href="#h" transform="matrix(8.9664 0 0 -8.9664 43.67 52.144)"></use><use width="100%" height="100%" xlink:href="#E" transform="matrix(8.9664 0 0 -8.9664 47.535 52.144)"></use><use width="100%" height="100%" xlink:href="#g" transform="matrix(8.9664 0 0 -8.9664 52.87 52.27)"></use><use width="100%" height="100%" xlink:href="#d" transform="matrix(8.9664 0 0 -8.9664 57.353 52.27)"></use><use width="100%" height="100%" xlink:href="#n" transform="matrix(8.9664 0 0 -8.9664 61.29 52.252)"></use><use width="100%" height="100%" xlink:href="#G" transform="matrix(8.9664 0 0 -8.9664 67.126 53.543)"></use><use width="100%" height="100%" xlink:href="#M" transform="matrix(8.9664 0 0 -8.9664 70.318 52.144)"></use><use width="100%" height="100%" xlink:href="#N" transform="matrix(8.9664 0 0 -8.9664 74.11 52.27)"></use><use width="100%" height="100%" xlink:href="#J" transform="matrix(8.9664 0 0 -8.9664 78.594 53.543)"></use><path d="M94.024 54.984 94.024 45.52" stroke="#000000" stroke-width="0.398" stroke-miterlimit="10" fill="none"/><use width="100%" height="100%" xlink:href="#K" transform="matrix(8.9664 0 0 -8.9664 103.563 52.386)"></use><path d="M242.29 54.984 242.29 45.52" stroke="#000000" stroke-width="0.398" stroke-miterlimit="10" fill="none"/><use width="100%" height="100%" xlink:href="#K" transform="matrix(8.9664 0 0 -8.9664 276.473 52.386)"></use><path d="M347.998 54.984 347.998 45.52" stroke="#000000" stroke-width="0.398" stroke-miterlimit="10" fill="none"/><use width="100%" height="100%" xlink:href="#w" transform="matrix(8.9664 0 0 -8.9664 20.004 61.609)"></use><use width="100%" height="100%" xlink:href="#O" transform="matrix(8.9664 0 0 -8.9664 28.656 63.187)"></use><use width="100%" height="100%" xlink:href="#L" transform="matrix(8.9664 0 0 -8.9664 35.462 61.734)"></use><use width="100%" height="100%" xlink:href="#A" transform="matrix(8.9664 0 0 -8.9664 40.384 61.609)"></use><use width="100%" height="100%" xlink:href="#P" transform="matrix(8.9664 0 0 -8.9664 47.046 61.609)"></use><use width="100%" height="100%" xlink:href="#z" transform="matrix(8.9664 0 0 -8.9664 53.897 61.609)"></use><use width="100%" height="100%" xlink:href="#G" transform="matrix(8.9664 0 0 -8.9664 62.764 63.008)"></use><use width="100%" height="100%" xlink:href="#H" transform="matrix(8.9664 0 0 -8.9664 65.23 61.609)"></use><use width="100%" height="100%" xlink:href="#M" transform="matrix(8.9664 0 0 -8.9664 70.44 61.609)"></use><use width="100%" height="100%" xlink:href="#J" transform="matrix(8.9664 0 0 -8.9664 74.232 63.008)"></use><path d="M94.024 64.448 94.024 54.984" stroke="#000000" stroke-width="0.398" stroke-miterlimit="10" fill="none"/><use width="100%" height="100%" xlink:href="#K" transform="matrix(8.9664 0 0 -8.9664 103.563 61.851)"></use><use width="100%" height="100%" xlink:href="#K" transform="matrix(8.9664 0 0 -8.9664 128.203 61.851)"></use><path d="M242.29 64.448 242.29 54.984M347.998 64.448 347.998 54.984" stroke="#000000" stroke-width="0.398" stroke-miterlimit="10" fill="none"/><use width="100%" height="100%" xlink:href="#a" transform="matrix(8.9664 0 0 -8.9664 27.378 71.073)"></use><use width="100%" height="100%" xlink:href="#A" transform="matrix(8.9664 0 0 -8.9664 33.027 71.073)"></use><use width="100%" height="100%" xlink:href="#P" transform="matrix(8.9664 0 0 -8.9664 39.69 71.073)"></use><use width="100%" height="100%" xlink:href="#z" transform="matrix(8.9664 0 0 -8.9664 46.54 71.073)"></use><use width="100%" height="100%" xlink:href="#G" transform="matrix(8.9664 0 0 -8.9664 55.407 72.472)"></use><use width="100%" height="100%" xlink:href="#H" transform="matrix(8.9664 0 0 -8.9664 57.873 71.073)"></use><use width="100%" height="100%" xlink:href="#Q" transform="matrix(8.9664 0 0 -8.9664 62.195 71.073)"></use><use width="100%" height="100%" xlink:href="#J" transform="matrix(8.9664 0 0 -8.9664 66.875 72.472)"></use><path d="M94.024 73.913 94.024 64.449" stroke="#000000" stroke-width="0.398" stroke-miterlimit="10" fill="none"/><use width="100%" height="100%" xlink:href="#K" transform="matrix(8.9664 0 0 -8.9664 103.563 71.315)"></use><use width="100%" height="100%" xlink:href="#K" transform="matrix(8.9664 0 0 -8.9664 152.851 71.315)"></use><path d="M242.29 73.913 242.29 64.449" stroke="#000000" stroke-width="0.398" stroke-miterlimit="10" fill="none"/><use width="100%" height="100%" xlink:href="#K" transform="matrix(8.9664 0 0 -8.9664 276.473 71.315)"></use><path d="M347.998 73.913 347.998 64.449" stroke="#000000" stroke-width="0.398" stroke-miterlimit="10" fill="none"/><use width="100%" height="100%" xlink:href="#u" transform="matrix(8.9664 0 0 -8.9664 19.111 80.538)"></use><use width="100%" height="100%" xlink:href="#m" transform="matrix(8.9664 0 0 -8.9664 25.495 80.538)"></use><use width="100%" height="100%" xlink:href="#v" transform="matrix(8.9664 0 0 -8.9664 28.015 82.376)"></use><use width="100%" height="100%" xlink:href="#v" transform="matrix(8.9664 0 0 -8.9664 33 82.376)"></use><use width="100%" height="100%" xlink:href="#l" transform="matrix(8.9664 0 0 -8.9664 37.959 80.538)"></use><use width="100%" height="100%" xlink:href="#b" transform="matrix(8.9664 0 0 -8.9664 40.532 80.663)"></use><use width="100%" height="100%" xlink:href="#z" transform="matrix(8.9664 0 0 -8.9664 44.432 80.538)"></use><use width="100%" height="100%" xlink:href="#R" transform="matrix(8.9664 0 0 -8.9664 50.494 80.663)"></use><use width="100%" height="100%" xlink:href="#m" transform="matrix(8.9664 0 0 -8.9664 55.398 80.538)"></use><use width="100%" height="100%" xlink:href="#n" transform="matrix(8.9664 0 0 -8.9664 57.927 80.646)"></use><use width="100%" height="100%" xlink:href="#G" transform="matrix(8.9664 0 0 -8.9664 63.763 81.937)"></use><use width="100%" height="100%" xlink:href="#H" transform="matrix(8.9664 0 0 -8.9664 66.229 80.538)"></use><use width="100%" height="100%" xlink:href="#S" transform="matrix(8.9664 0 0 -8.9664 70.829 80.663)"></use><use width="100%" height="100%" xlink:href="#J" transform="matrix(8.9664 0 0 -8.9664 75.231 81.937)"></use><path d="M94.024 83.377 94.024 73.913" stroke="#000000" stroke-width="0.398" stroke-miterlimit="10" fill="none"/><use width="100%" height="100%" xlink:href="#K" transform="matrix(8.9664 0 0 -8.9664 128.207 80.78)"></use><use width="100%" height="100%" xlink:href="#K" transform="matrix(8.9664 0 0 -8.9664 152.847 80.78)"></use><use width="100%" height="100%" xlink:href="#K" transform="matrix(8.9664 0 0 -8.9664 202.135 80.78)"></use><path d="M242.29 83.377 242.29 73.913" stroke="#000000" stroke-width="0.398" stroke-miterlimit="10" fill="none"/><use width="100%" height="100%" xlink:href="#K" transform="matrix(8.9664 0 0 -8.9664 276.473 80.78)"></use><use width="100%" height="100%" xlink:href="#K" transform="matrix(8.9664 0 0 -8.9664 328.317 80.78)"></use><path d="M347.998 83.377 347.998 73.913" stroke="#000000" stroke-width="0.398" stroke-miterlimit="10" fill="none"/><use width="100%" height="100%" xlink:href="#u" transform="matrix(8.9664 0 0 -8.9664 26.343 90.002)"></use><use width="100%" height="100%" xlink:href="#b" transform="matrix(8.9664 0 0 -8.9664 32.808 90.127)"></use><use width="100%" height="100%" xlink:href="#r" transform="matrix(8.9664 0 0 -8.9664 37.004 90.172)"></use><use width="100%" height="100%" xlink:href="#q" transform="matrix(8.9664 0 0 -8.9664 43.263 90.127)"></use><use width="100%" height="100%" xlink:href="#z" transform="matrix(8.9664 0 0 -8.9664 47.665 90.002)"></use><use width="100%" height="100%" xlink:href="#G" transform="matrix(8.9664 0 0 -8.9664 56.532 91.4)"></use><use width="100%" height="100%" xlink:href="#H" transform="matrix(8.9664 0 0 -8.9664 58.998 90.002)"></use><use width="100%" height="100%" xlink:href="#T" transform="matrix(8.9664 0 0 -8.9664 63.499 90.127)"></use><use width="100%" height="100%" xlink:href="#J" transform="matrix(8.9664 0 0 -8.9664 68 91.4)"></use><path d="M94.024 92.842 94.024 83.378" stroke="#000000" stroke-width="0.398" stroke-miterlimit="10" fill="none"/><use width="100%" height="100%" xlink:href="#K" transform="matrix(8.9664 0 0 -8.9664 177.496 90.244)"></use><path d="M242.29 92.842 242.29 83.378M347.998 92.842 347.998 83.378" stroke="#000000" stroke-width="0.398" stroke-miterlimit="10" fill="none"/><use width="100%" height="100%" xlink:href="#z" transform="matrix(8.9664 0 0 -8.9664 23.957 99.467)"></use><use width="100%" height="100%" xlink:href="#U" transform="matrix(8.9664 0 0 -8.9664 29.938 99.628)"></use><use width="100%" height="100%" xlink:href="#s" transform="matrix(8.9664 0 0 -8.9664 36.179 99.637)"></use><use width="100%" height="100%" xlink:href="#P" transform="matrix(8.9664 0 0 -8.9664 43.11 99.467)"></use><use width="100%" height="100%" xlink:href="#z" transform="matrix(8.9664 0 0 -8.9664 49.96 99.467)"></use><use width="100%" height="100%" xlink:href="#G" transform="matrix(8.9664 0 0 -8.9664 58.828 100.866)"></use><use width="100%" height="100%" xlink:href="#H" transform="matrix(8.9664 0 0 -8.9664 61.294 99.467)"></use><use width="100%" height="100%" xlink:href="#H" transform="matrix(8.9664 0 0 -8.9664 65.777 99.467)"></use><use width="100%" height="100%" xlink:href="#J" transform="matrix(8.9664 0 0 -8.9664 70.296 100.866)"></use><path d="M94.024 102.306 94.024 92.842" stroke="#000000" stroke-width="0.398" stroke-miterlimit="10" fill="none"/><use width="100%" height="100%" xlink:href="#K" transform="matrix(8.9664 0 0 -8.9664 103.563 99.71)"></use><use width="100%" height="100%" xlink:href="#K" transform="matrix(8.9664 0 0 -8.9664 128.203 99.71)"></use><path d="M242.29 102.306 242.29 92.842" stroke="#000000" stroke-width="0.398" stroke-miterlimit="10" fill="none"/><use width="100%" height="100%" xlink:href="#K" transform="matrix(8.9664 0 0 -8.9664 251.828 99.71)"></use><use width="100%" height="100%" xlink:href="#K" transform="matrix(8.9664 0 0 -8.9664 276.468 99.71)"></use><path d="M347.998 102.306 347.998 92.842" stroke="#000000" stroke-width="0.398" stroke-miterlimit="10" fill="none"/><use width="100%" height="100%" xlink:href="#r" transform="matrix(8.9664 0 0 -8.9664 28.037 109.101)"></use><use width="100%" height="100%" xlink:href="#l" transform="matrix(8.9664 0 0 -8.9664 34.215 108.931)"></use><use width="100%" height="100%" xlink:href="#m" transform="matrix(8.9664 0 0 -8.9664 36.708 108.931)"></use><use width="100%" height="100%" xlink:href="#P" transform="matrix(8.9664 0 0 -8.9664 39.326 108.931)"></use><use width="100%" height="100%" xlink:href="#V" transform="matrix(8.9664 0 0 -8.9664 46.31 108.931)"></use><use width="100%" height="100%" xlink:href="#G" transform="matrix(8.9664 0 0 -8.9664 55.044 110.33)"></use><use width="100%" height="100%" xlink:href="#S" transform="matrix(8.9664 0 0 -8.9664 57.626 109.056)"></use><use width="100%" height="100%" xlink:href="#I" transform="matrix(8.9664 0 0 -8.9664 61.94 109.056)"></use><use width="100%" height="100%" xlink:href="#J" transform="matrix(8.9664 0 0 -8.9664 66.512 110.33)"></use><path d="M94.024 111.771 94.024 102.307" stroke="#000000" stroke-width="0.398" stroke-miterlimit="10" fill="none"/><use width="100%" height="100%" xlink:href="#K" transform="matrix(8.9664 0 0 -8.9664 103.563 109.173)"></use><path d="M242.29 111.771 242.29 102.307" stroke="#000000" stroke-width="0.398" stroke-miterlimit="10" fill="none"/><use width="100%" height="100%" xlink:href="#K" transform="matrix(8.9664 0 0 -8.9664 328.322 109.173)"></use><path d="M347.998 111.771 347.998 102.307" stroke="#000000" stroke-width="0.398" stroke-miterlimit="10" fill="none"/><use width="100%" height="100%" xlink:href="#x" transform="matrix(8.95743 0 0 -8.9664 9.134 118.396)"></use><use width="100%" height="100%" xlink:href="#g" transform="matrix(8.95743 0 0 -8.9664 16.139 118.522)"></use><use width="100%" height="100%" xlink:href="#l" transform="matrix(8.95743 0 0 -8.9664 20.537 118.396)"></use><use width="100%" height="100%" xlink:href="#l" transform="matrix(8.95743 0 0 -8.9664 23.027 118.396)"></use><use width="100%" height="100%" xlink:href="#L" transform="matrix(8.95743 0 0 -8.9664 25.517 118.522)"></use><use width="100%" height="100%" xlink:href="#z" transform="matrix(8.95743 0 0 -8.9664 30.498 118.396)"></use><use width="100%" height="100%" xlink:href="#R" transform="matrix(8.95743 0 0 -8.9664 36.553 118.522)"></use><use width="100%" height="100%" xlink:href="#m" transform="matrix(8.95743 0 0 -8.9664 41.453 118.396)"></use><use width="100%" height="100%" xlink:href="#n" transform="matrix(8.95743 0 0 -8.9664 43.979 118.504)"></use><use width="100%" height="100%" xlink:href="#a" transform="matrix(8.95743 0 0 -8.9664 46.926 118.396)"></use><use width="100%" height="100%" xlink:href="#b" transform="matrix(8.95743 0 0 -8.9664 52.98 118.522)"></use><use width="100%" height="100%" xlink:href="#c" transform="matrix(8.95743 0 0 -8.9664 56.922 118.396)"></use><use width="100%" height="100%" xlink:href="#d" transform="matrix(8.95743 0 0 -8.9664 61.938 118.522)"></use><use width="100%" height="100%" xlink:href="#e" transform="matrix(8.95743 0 0 -8.9664 65.835 118.396)"></use><use width="100%" height="100%" xlink:href="#G" transform="matrix(8.95743 0 0 -8.9664 73.7 119.795)"></use><use width="100%" height="100%" xlink:href="#S" transform="matrix(8.9664 0 0 -8.9664 76.28 118.522)"></use><use width="100%" height="100%" xlink:href="#M" transform="matrix(8.9664 0 0 -8.9664 81.373 118.396)"></use><use width="100%" height="100%" xlink:href="#J" transform="matrix(8.95743 0 0 -8.9664 85.167 119.795)"></use><path d="M94.024 121.235 94.024 111.771" stroke="#000000" stroke-width="0.398" stroke-miterlimit="10" fill="none"/><use width="100%" height="100%" xlink:href="#K" transform="matrix(8.9664 0 0 -8.9664 103.563 118.638)"></use><use width="100%" height="100%" xlink:href="#K" transform="matrix(8.9664 0 0 -8.9664 128.203 118.638)"></use><path d="M242.29 121.235 242.29 111.771" stroke="#000000" stroke-width="0.398" stroke-miterlimit="10" fill="none"/><use width="100%" height="100%" xlink:href="#K" transform="matrix(8.9664 0 0 -8.9664 251.828 118.638)"></use><path d="M347.998 121.235 347.998 111.771" stroke="#000000" stroke-width="0.398" stroke-miterlimit="10" fill="none"/><use width="100%" height="100%" xlink:href="#W" transform="matrix(8.9664 0 0 -8.9664 15.888 127.994)"></use><use width="100%" height="100%" xlink:href="#m" transform="matrix(8.9664 0 0 -8.9664 24.666 127.86)"></use><use width="100%" height="100%" xlink:href="#i" transform="matrix(8.9664 0 0 -8.9664 27.213 127.86)"></use><use width="100%" height="100%" xlink:href="#m" transform="matrix(8.9664 0 0 -8.9664 32.144 127.86)"></use><use width="100%" height="100%" xlink:href="#a" transform="matrix(8.9664 0 0 -8.9664 34.637 127.86)"></use><use width="100%" height="100%" xlink:href="#m" transform="matrix(8.9664 0 0 -8.9664 40.618 127.86)"></use><use width="100%" height="100%" xlink:href="#X" transform="matrix(8.9664 0 0 -8.9664 43.218 129.707)"></use><use width="100%" height="100%" xlink:href="#z" transform="matrix(8.9664 0 0 -8.9664 47.594 127.86)"></use><use width="100%" height="100%" xlink:href="#R" transform="matrix(8.9664 0 0 -8.9664 53.655 127.986)"></use><use width="100%" height="100%" xlink:href="#m" transform="matrix(8.9664 0 0 -8.9664 58.56 127.86)"></use><use width="100%" height="100%" xlink:href="#n" transform="matrix(8.9664 0 0 -8.9664 61.088 127.968)"></use><use width="100%" height="100%" xlink:href="#G" transform="matrix(8.9664 0 0 -8.9664 66.924 129.259)"></use><use width="100%" height="100%" xlink:href="#S" transform="matrix(8.9664 0 0 -8.9664 69.506 127.986)"></use><use width="100%" height="100%" xlink:href="#H" transform="matrix(8.9664 0 0 -8.9664 73.873 127.86)"></use><use width="100%" height="100%" xlink:href="#J" transform="matrix(8.9664 0 0 -8.9664 78.392 129.259)"></use><path d="M94.024 130.699 94.024 121.235" stroke="#000000" stroke-width="0.398" stroke-miterlimit="10" fill="none"/><use width="100%" height="100%" xlink:href="#K" transform="matrix(8.9664 0 0 -8.9664 103.563 128.102)"></use><use width="100%" height="100%" xlink:href="#K" transform="matrix(8.9664 0 0 -8.9664 128.203 128.102)"></use><path d="M242.29 130.699 242.29 121.235" stroke="#000000" stroke-width="0.398" stroke-miterlimit="10" fill="none"/><use width="100%" height="100%" xlink:href="#K" transform="matrix(8.9664 0 0 -8.9664 276.473 128.102)"></use><path d="M347.998 130.699 347.998 121.235" stroke="#000000" stroke-width="0.398" stroke-miterlimit="10" fill="none"/><path d="M2.966 132.642 397.487 132.642" stroke="#000000" stroke-width="0.299" stroke-miterlimit="10" fill="none"/><use width="100%" height="100%" xlink:href="#Y" transform="matrix(8.9664 0 0 -8.9664 30.84 142.501)"></use><use width="100%" height="100%" xlink:href="#D" transform="matrix(7.1731 0 0 -7.1731 37.509 142.46)"></use><use width="100%" height="100%" xlink:href="#Z" transform="matrix(7.1731 0 0 -7.1731 43.161 142.331)"></use><use width="100%" height="100%" xlink:href="#z" transform="matrix(8.9664 0 0 -8.9664 46.171 142.331)"></use><use width="100%" height="100%" xlink:href="#t" transform="matrix(7.1731 0 0 -7.1731 52.333 142.331)"></use><use width="100%" height="100%" xlink:href="#Z" transform="matrix(7.1731 0 0 -7.1731 58 142.331)"></use><use width="100%" height="100%" xlink:href="#V" transform="matrix(7.1731 0 0 -7.1731 61.314 142.331)"></use><path d="M94.024 145.17 94.024 135.706" stroke="#000000" stroke-width="0.398" stroke-miterlimit="10" fill="none"/><use width="100%" height="100%" xlink:href="#K" transform="matrix(8.9664 0 0 -8.9664 103.563 142.573)"></use><use width="100%" height="100%" xlink:href="#K" transform="matrix(8.9664 0 0 -8.9664 128.203 142.573)"></use><use width="100%" height="100%" xlink:href="#K" transform="matrix(8.9664 0 0 -8.9664 152.843 142.573)"></use><use width="100%" height="100%" xlink:href="#K" transform="matrix(8.9664 0 0 -8.9664 177.491 142.573)"></use><use width="100%" height="100%" xlink:href="#K" transform="matrix(8.9664 0 0 -8.9664 202.13 142.573)"></use><use width="100%" height="100%" xlink:href="#K" transform="matrix(8.9664 0 0 -8.9664 226.77 142.573)"></use><path d="M242.29 145.17 242.29 135.706" stroke="#000000" stroke-width="0.398" stroke-miterlimit="10" fill="none"/><use width="100%" height="100%" xlink:href="#K" transform="matrix(8.9664 0 0 -8.9664 251.828 142.573)"></use><use width="100%" height="100%" xlink:href="#K" transform="matrix(8.9664 0 0 -8.9664 276.468 142.573)"></use><use width="100%" height="100%" xlink:href="#K" transform="matrix(8.9664 0 0 -8.9664 301.117 142.573)"></use><use width="100%" height="100%" xlink:href="#K" transform="matrix(8.9664 0 0 -8.9664 328.312 142.573)"></use><path d="M347.998 145.17 347.998 135.706" stroke="#000000" stroke-width="0.398" stroke-miterlimit="10" fill="none"/><use width="100%" height="100%" xlink:href="#K" transform="matrix(8.9664 0 0 -8.9664 357.537 142.573)"></use><use width="100%" height="100%" xlink:href="#K" transform="matrix(8.9664 0 0 -8.9664 382.177 142.573)"></use><path d="M2.966 147.362 397.487 147.362" stroke="#000000" stroke-width="0.797" stroke-miterlimit="10" fill="none"/></svg>