<svg xmlns="http://www.w3.org/2000/svg" xmlns:xlink="http://www.w3.org/1999/xlink" width="302.4" height="226.88" viewBox="0 0 226.8 170.16"><g data-name="Artifact"><path d="M0 170.125h226.75V0H0z" fill="#fff" data-name="背景"/></g><g data-name="Figure"><clipPath id="a"><path transform="matrix(1 0 0 -1 0 170.16)" d="M0 0h226.8v170.16H0z"/></clipPath><g clip-path="url(#a)"><path d="M62.227 22.02H189.26c11.264 0 20.395 9.13 20.395 20.395v29.613c0 24.926-20.207 45.133-45.133 45.133H37.49c-11.265 0-20.396-9.131-20.396-20.395V67.153c0-24.926 20.207-45.133 45.133-45.133" fill="#dce2e8" fill-rule="evenodd"/></g><path stroke-width="3" stroke-miterlimit="8" fill="none" stroke="#000" d="m171.259 66.845-34.285 31.588"/></g><g data-name="Figure"><clipPath id="b"><path transform="matrix(1 0 0 -1 0 170.16)" d="M0 0h226.8v170.16H0z"/></clipPath><g clip-path="url(#b)"><path d="M137.358 98.078c-3.59-3.895-9.656-4.144-13.551-.555-3.895 3.59-4.144 9.656-.555 13.551 3.589 3.895 9.656 4.144 13.55.555 3.896-3.589 4.145-9.656.556-13.55" fill-rule="evenodd"/></g><path stroke-width="3" stroke-miterlimit="8" fill="none" stroke="#000" d="m171.147 63.835-36.525-28.97"/></g><g data-name="Figure"><clipPath id="c"><path transform="matrix(1 0 0 -1 0 170.16)" d="M0 0h226.8v170.16H0z"/></clipPath><g clip-path="url(#c)"><path d="M138.558 37.987c3.29-4.15 2.595-10.182-1.554-13.473-4.15-3.291-10.182-2.595-13.473 1.554-3.291 4.15-2.596 10.182 1.554 13.473a9.589 9.589 0 0 0 13.473-1.554" fill-rule="evenodd"/></g><path stroke-width="3" stroke-miterlimit="8" fill="none" stroke="#000" d="M176.646 63.153 201.99 48.55"/></g><g data-name="Figure"><clipPath id="d"><path transform="matrix(1 0 0 -1 0 170.16)" d="M0 0h226.8v170.16H0z"/></clipPath><g clip-path="url(#d)"><path d="M191.515 54.586c2.644 4.589 8.508 6.166 13.097 3.522 4.59-2.644 6.166-8.508 3.522-13.097-2.644-4.59-8.508-6.166-13.097-3.522-4.589 2.644-6.166 8.508-3.522 13.097" fill-rule="evenodd"/></g><path stroke-width="3" stroke-miterlimit="8" fill="none" stroke="#000" d="m174.82 68.698 19.944 36.75"/></g><g data-name="Figure"><clipPath id="e"><path transform="matrix(1 0 0 -1 0 170.16)" d="M0 0h226.8v170.16H0z"/></clipPath><g clip-path="url(#e)"><path d="M203.898 104.608c0-5.296-4.294-9.59-9.59-9.59s-9.59 4.294-9.59 9.59 4.294 9.59 9.59 9.59 9.59-4.294 9.59-9.59" fill-rule="evenodd"/></g><clipPath id="f"><path transform="matrix(1 0 0 -1 0 170.16)" d="M0 0h226.8v170.16H0z"/></clipPath><g clip-path="url(#f)"><path d="M182.553 65.275c0-5.296-4.294-9.59-9.59-9.59s-9.59 4.294-9.59 9.59 4.294 9.59 9.59 9.59 9.59-4.294 9.59-9.59" fill-rule="evenodd"/></g><clipPath id="g"><path transform="matrix(1 0 0 -1 0 170.16)" d="M0 0h226.8v170.16H0z"/></clipPath><g clip-path="url(#g)"><path d="M29.482 45.47a3.902 3.902 0 0 1 3.903-3.904h4.757a3.903 3.903 0 0 1 3.903 3.903v9.07a3.903 3.903 0 0 1-3.903 3.902h-4.757a3.902 3.902 0 0 1-3.903-3.903z" fill-rule="evenodd"/></g><clipPath id="h"><path transform="matrix(1 0 0 -1 0 170.16)" d="M0 0h226.8v170.16H0z"/></clipPath><g clip-path="url(#h)"><path d="m117.96 88.288.173-.344c4.467 1.377 9.449.172 12.885-3.27 3.436-3.443 4.467-8.262 3.264-12.737l-7.387 7.4-7.216-1.892-1.89-7.23 7.388-7.4c-4.467-1.204-9.278-.172-12.714 3.27-3.607 3.615-4.638 8.778-3.264 13.425l-30.41 30.464c-1.201 1.205-1.888 2.926-1.888 4.475 0 1.549.687 3.098 1.889 4.303 2.406 2.409 6.357 2.409 8.762 0zm-38.14 26.677c0-1.377 1.032-2.41 2.406-2.41 1.203 0 2.234 1.033 2.234 2.41 0 1.205-1.031 2.41-2.234 2.41-1.374 0-2.405-1.205-2.405-2.41" fill-rule="evenodd"/></g><clipPath id="i"><path transform="matrix(1 0 0 -1 0 170.16)" d="M0 0h226.8v170.16H0z"/></clipPath><g clip-path="url(#i)"><path d="M50.557 75.694H83.83c6.015 0 11.39 2.743 14.942 7.047l1.247 2.056-24.98 24.98a6.306 6.306 0 0 0-1.854 4.475l.45 2.317H50.558c-10.694 0-19.364-8.67-19.364-19.364v-2.147c0-10.695 8.67-19.364 19.364-19.364" fill="#44749b" fill-rule="evenodd"/></g><clipPath id="j"><path transform="matrix(1 0 0 -1 0 170.16)" d="M0 0h226.8v170.16H0z"/></clipPath><g clip-path="url(#j)"><path d="M94.583 45.47a3.902 3.902 0 0 1 3.903-3.904h4.757a3.903 3.903 0 0 1 3.903 3.903v9.07a3.903 3.903 0 0 1-3.903 3.902h-4.757a3.902 3.902 0 0 1-3.903-3.903z" fill-rule="evenodd"/></g><clipPath id="k"><path transform="matrix(1 0 0 -1 0 170.16)" d="M0 0h226.8v170.16H0z"/></clipPath><g clip-path="url(#k)"><path d="M66.645 14.63c0-.619.501-1.119 1.118-1.119h1.363c.618 0 1.12.5 1.12 1.118v9.102c0 .617-.502 1.118-1.12 1.118h-1.363a1.119 1.119 0 0 1-1.118-1.118z" fill-rule="evenodd"/></g><clipPath id="l"><path transform="matrix(1 0 0 -1 0 170.16)" d="M0 0h226.8v170.16H0z"/></clipPath><g clip-path="url(#l)"><path d="M63.346 10.662a5.1 5.1 0 1 1 10.198 0 5.1 5.1 0 0 1-10.198 0" fill-rule="evenodd"/></g><clipPath id="m"><path transform="matrix(1 0 0 -1 0 170.16)" d="M0 0h226.8v170.16H0z"/></clipPath><g clip-path="url(#m)"><path d="M54.943 37.246c-6.181 0-11.192 5.01-11.192 11.192v1.24c0 6.182 5.01 11.193 11.192 11.193h26.74c6.182 0 11.193-5.011 11.193-11.192v-1.241c0-6.181-5.011-11.192-11.192-11.192zm5.162-14.938h16.417c12.656 0 22.917 10.26 22.917 22.917v2.542l-.12 1.174.12.587V59.59c0 6.748-5.471 12.219-12.22 12.219H49.408c-6.748 0-12.22-5.471-12.22-12.22V49.529l.12-.587-.118-1.174v-2.542c0-12.656 10.26-22.917 22.916-22.917" fill="#44749b" fill-rule="evenodd"/></g><clipPath id="n"><path transform="matrix(1 0 0 -1 0 170.16)" d="M0 0h226.8v170.16H0z"/></clipPath><g clip-path="url(#n)"><path d="M51.998 47.236a5.669 5.669 0 1 1 11.339 0 5.67 5.67 0 0 1-11.339 0" fill-rule="evenodd"/></g><clipPath id="o"><path transform="matrix(1 0 0 -1 0 170.16)" d="M0 0h226.8v170.16H0z"/></clipPath><g clip-path="url(#o)"><path d="M73.29 47.236a5.669 5.669 0 1 1 11.34 0 5.67 5.67 0 0 1-11.34 0" fill-rule="evenodd"/></g><clipPath id="p"><path transform="matrix(1 0 0 -1 0 170.16)" d="M0 0h226.8v170.16H0z"/></clipPath><g clip-path="url(#p)"><symbol id="q"><path d="M.273 0C.184 0 .116.022.07.067.023.112 0 .177 0 .264v.434h.119V.272c0-.056.013-.1.041-.131A.149.149 0 0 1 .276.094C.33.094.37.11.396.143a.202.202 0 0 1 .042.135v.42h.118V.27C.556.184.532.117.483.07.434.023.364 0 .273 0z"/></symbol><use xlink:href="#q" transform="matrix(60 0 0 -60 22.529 160.039)"/></g><symbol id="r"><path d="M.451 0 .104.557A4.236 4.236 0 0 0 .107.432V0H0v.688h.142L.493.127a2.191 2.191 0 0 0-.005.136v.425h.108V0H.451z"/></symbol><symbol id="s"><path d="M.12 0H0v.688h.12V0z"/></symbol><use xlink:href="#r" transform="matrix(44.04 0 0 -44.04 64.137 158.83)"/><use xlink:href="#s" transform="matrix(44.04 0 0 -44.04 97.982 158.83)"/><clipPath id="t"><path transform="matrix(1 0 0 -1 0 170.16)" d="M0 0h226.8v170.16H0z"/></clipPath><g clip-path="url(#t)"><symbol id="u"><path d="M.395 0H0v.688h.375V.594H.119V.396h.226V.305H.119V.093h.276V0z"/></symbol><use xlink:href="#u" transform="matrix(60 0 0 -60 112.181 159.453)"/></g><symbol id="v"><path d="M.461.35C.461.512.384.594.23.594h-.11v-.5h.125a.2.2 0 0 1 .16.067A.28.28 0 0 1 .46.35m.12 0a.408.408 0 0 0-.04-.187.28.28 0 0 0-.115-.121A.345.345 0 0 0 .253 0H0v.688h.231c.114 0 .2-.029.26-.086C.551.544.581.46.581.35z"/></symbol><symbol id="w"><path d="M.526.688V.592H.321V0H.203v.592H0v.096h.526z"/></symbol><use xlink:href="#v" transform="matrix(44.04 0 0 -44.04 141.919 158.83)"/><use xlink:href="#s" transform="matrix(44.04 0 0 -44.04 173.478 158.83)"/><use xlink:href="#w" transform="matrix(44.04 0 0 -44.04 183.094 158.83)"/></g></svg>