<svg xmlns="http://www.w3.org/2000/svg" xmlns:xlink="http://www.w3.org/1999/xlink" width="302.4" height="226.88" viewBox="0 0 226.8 170.16"><g data-name="Artifact"><path d="M0 170.125h226.75V0H0z" fill="#fff" data-name="背景"/></g><g data-name="Figure"><clipPath id="a"><path transform="matrix(1 0 0 -1 0 170.16)" d="M0 0h226.8v170.16H0z"/></clipPath><g clip-path="url(#a)"><path d="M62.227 22.02H189.26c11.264 0 20.395 9.13 20.395 20.395v29.613c0 24.926-20.207 45.133-45.133 45.133H37.49c-11.265 0-20.396-9.131-20.396-20.396V67.153c0-24.926 20.207-45.133 45.133-45.133" fill="#dce2e8" fill-rule="evenodd"/></g><path stroke-width="3" stroke-miterlimit="8" fill="none" stroke="#000" d="m161.692 75.659-24.718 22.774"/></g><g data-name="Figure"><clipPath id="b"><path transform="matrix(1 0 0 -1 0 170.16)" d="M0 0h226.8v170.16H0z"/></clipPath><g clip-path="url(#b)"><path d="M137.358 98.078c-3.59-3.895-9.656-4.144-13.551-.555-3.895 3.59-4.144 9.656-.555 13.551 3.589 3.895 9.656 4.144 13.55.555 3.896-3.589 4.145-9.656.556-13.55" fill-rule="evenodd"/></g><path stroke-width="3" stroke-miterlimit="8" fill="none" stroke="#000" d="m160.208 55.159-25.586-20.293"/></g><g data-name="Figure"><clipPath id="c"><path transform="matrix(1 0 0 -1 0 170.16)" d="M0 0h226.8v170.16H0z"/></clipPath><g clip-path="url(#c)"><path d="M138.558 37.987c3.29-4.15 2.595-10.182-1.554-13.473-4.15-3.291-10.182-2.595-13.473 1.554-3.291 4.15-2.596 10.182 1.554 13.473a9.589 9.589 0 0 0 13.473-1.554" fill-rule="evenodd"/></g><path stroke-width="3" stroke-miterlimit="8" fill="none" stroke="#000" d="m185.551 58.022 16.44-9.471"/></g><g data-name="Figure"><clipPath id="d"><path transform="matrix(1 0 0 -1 0 170.16)" d="M0 0h226.8v170.16H0z"/></clipPath><g clip-path="url(#d)"><path d="M191.515 54.586c2.644 4.589 8.508 6.166 13.097 3.522 4.59-2.644 6.166-8.508 3.522-13.097-2.644-4.59-8.508-6.166-13.097-3.522-4.589 2.644-6.166 8.508-3.522 13.097" fill-rule="evenodd"/></g><path stroke-width="3" stroke-miterlimit="8" fill="none" stroke="#000" d="m180.47 79.107 14.293 26.34"/></g><g data-name="Figure"><clipPath id="e"><path transform="matrix(1 0 0 -1 0 170.16)" d="M0 0h226.8v170.16H0z"/></clipPath><g clip-path="url(#e)"><path d="M203.898 104.608c0-5.296-4.294-9.59-9.59-9.59s-9.59 4.294-9.59 9.59 4.294 9.59 9.59 9.59 9.59-4.294 9.59-9.59" fill-rule="evenodd"/></g><clipPath id="f"><path transform="matrix(1 0 0 -1 0 170.16)" d="M0 0h226.8v170.16H0z"/></clipPath><g clip-path="url(#f)"><path d="M166.452 71.01a16.877 16.877 0 0 0 4.796 6.235l.166.099a13.195 13.195 0 0 1-9.135-4.074l.3-.248a15.85 15.85 0 0 1 3.873-2.011m13.114-.487a1.366 1.366 0 1 1-1.367 1.365c0-.754.612-1.365 1.367-1.365m-8.196-.438v6.064a15.912 15.912 0 0 1-4.046-5.426 15.86 15.86 0 0 1 4.046-.638m8.198-.471a2.28 2.28 0 0 0-2.282 2.274 2.284 2.284 0 0 0 2.282 2.277 2.283 2.283 0 0 0 2.281-2.277 2.28 2.28 0 0 0-2.28-2.274m-.525-3.643h1.261c.224 0 .417.165.45.385l.105.693c.048.31.241.558.532.684a.877.877 0 0 0 .863-.08l.552-.376a.458.458 0 0 1 .58.055l.894.893a.454.454 0 0 1 .043.59l-.414.563a.883.883 0 0 0-.11.857.879.879 0 0 0 .666.555l.658.126c.217.043.37.228.37.448v1.259a.461.461 0 0 1-.386.453l-.689.106a.885.885 0 0 0-.69.527.876.876 0 0 0 .083.862l.374.554a.46.46 0 0 1-.055.579l-.895.889a.451.451 0 0 1-.59.047l-.395-.291a.89.89 0 0 0-.878-.107.894.894 0 0 0-.544.693l-.075.484a.457.457 0 0 1-.449.389h-1.265a.456.456 0 0 1-.446-.37l-.126-.657a.891.891 0 0 0-.555-.668.876.876 0 0 0-.859.114l-.564.413a.46.46 0 0 1-.59-.047l-.895-.89a.46.46 0 0 1-.056-.578l.375-.554a.879.879 0 0 0 .083-.862.886.886 0 0 0-.69-.527l-.69-.106a.459.459 0 0 1-.386-.453v-1.26c0-.22.154-.404.371-.447l.658-.126a.88.88 0 0 0 .666-.555.88.88 0 0 0-.11-.857l-.414-.563a.453.453 0 0 1 .043-.59l.894-.893a.46.46 0 0 1 .58-.055l.713.488a.887.887 0 0 0 .851.082.863.863 0 0 0 .536-.657l.165-.85a.457.457 0 0 1 .45-.37m-6.759-1.365h12.747a13.298 13.298 0 0 1-.378 2.707l-.623-.621a1.36 1.36 0 0 0-1.734-.166l-.535.382-.107-.688a1.36 1.36 0 0 0-1.35-1.157h-1.262c-.658 0-1.222.464-1.344 1.105l-.146.842-.717-.488a1.397 1.397 0 0 0-.764-.232c-.367 0-.709.142-.969.402l-.89.889a1.358 1.358 0 0 0-.139 1.774l.422.543-.658.126a1.369 1.369 0 0 0-1.11 1.342v1.259c0 .68.487 1.247 1.161 1.349l.682.087-.379.554a1.369 1.369 0 0 0 .166 1.73l.193.194-1.285.736-.098.012c-.02 0-.04 0-.055.004l-.828-.488zm-6.373 0h5.458v4.57a16.686 16.686 0 0 0-4.402.7 15.857 15.857 0 0 1-1.056-5.27m-7.298 0h6.39a16.746 16.746 0 0 0 1.1 5.563 16.944 16.944 0 0 0-4.08 2.132l-.352.29a13.119 13.119 0 0 1-3.058-7.985m17.912-6.592a15.886 15.886 0 0 1 1.217 5.683h-5.458v-5.025c1.447-.04 2.873-.26 4.241-.658m-9.4 0c1.371.398 2.794.618 4.244.658v5.025h-5.458c.055-1.98.47-3.9 1.214-5.683m-5.217-2.58.406.319a16.641 16.641 0 0 0 3.941 1.979 16.793 16.793 0 0 0-1.254 5.965h-6.388a13.14 13.14 0 0 1 3.295-8.263m19.826-.016a13.16 13.16 0 0 1 3.306 8.279h-6.388a16.792 16.792 0 0 0-1.253-5.965 16.679 16.679 0 0 0 3.941-1.98zm-9.45-3.265a15.95 15.95 0 0 1 3.862 5.023c-1.249.35-2.546.547-3.862.582zm-.915 0v5.605a15.884 15.884 0 0 1-3.862-.582 15.997 15.997 0 0 1 3.862-5.023m1.28-1.177a13.209 13.209 0 0 1 8.458 3.78l-.303.26a15.838 15.838 0 0 1-3.776 1.88 16.862 16.862 0 0 0-4.54-5.767zm-1.299-.016-.102.098a16.857 16.857 0 0 0-4.623 5.844 15.819 15.819 0 0 1-3.776-1.885l-.315-.248a13.182 13.182 0 0 1 8.816-3.81" fill-rule="evenodd"/></g><clipPath id="g"><path transform="matrix(1 0 0 -1 0 170.16)" d="M0 0h226.8v170.16H0z"/></clipPath><g clip-path="url(#g)"><path d="M29.482 45.47a3.902 3.902 0 0 1 3.903-3.904h4.757a3.903 3.903 0 0 1 3.903 3.903v9.07a3.903 3.903 0 0 1-3.903 3.902h-4.757a3.902 3.902 0 0 1-3.903-3.903z" fill-rule="evenodd"/></g><clipPath id="h"><path transform="matrix(1 0 0 -1 0 170.16)" d="M0 0h226.8v170.16H0z"/></clipPath><g clip-path="url(#h)"><path d="m117.96 88.288.173-.344c4.467 1.377 9.449.172 12.885-3.27 3.436-3.443 4.467-8.262 3.264-12.737l-7.387 7.4-7.216-1.892-1.89-7.23 7.388-7.4c-4.467-1.204-9.278-.172-12.714 3.27-3.607 3.615-4.638 8.778-3.264 13.425l-30.41 30.464c-1.201 1.205-1.888 2.926-1.888 4.475 0 1.549.687 3.098 1.889 4.303 2.406 2.409 6.357 2.409 8.762 0zm-38.14 26.677c0-1.377 1.032-2.41 2.407-2.41 1.202 0 2.233 1.033 2.233 2.41 0 1.205-1.031 2.41-2.233 2.41-1.375 0-2.406-1.205-2.406-2.41" fill-rule="evenodd"/></g><clipPath id="i"><path transform="matrix(1 0 0 -1 0 170.16)" d="M0 0h226.8v170.16H0z"/></clipPath><g clip-path="url(#i)"><path d="M50.557 75.694H83.83c6.015 0 11.39 2.743 14.94 7.047l1.249 2.056-24.98 24.98a6.306 6.306 0 0 0-1.854 4.475l.45 2.317H50.558c-10.694 0-19.364-8.67-19.364-19.364v-2.147c0-10.695 8.67-19.364 19.364-19.364" fill="#44749b" fill-rule="evenodd"/></g><clipPath id="j"><path transform="matrix(1 0 0 -1 0 170.16)" d="M0 0h226.8v170.16H0z"/></clipPath><g clip-path="url(#j)"><path d="M94.583 45.47a3.902 3.902 0 0 1 3.903-3.904h4.757a3.903 3.903 0 0 1 3.903 3.903v9.07a3.903 3.903 0 0 1-3.903 3.902h-4.757a3.902 3.902 0 0 1-3.903-3.903z" fill-rule="evenodd"/></g><clipPath id="k"><path transform="matrix(1 0 0 -1 0 170.16)" d="M0 0h226.8v170.16H0z"/></clipPath><g clip-path="url(#k)"><path d="M66.645 14.63c0-.619.501-1.119 1.118-1.119h1.363c.618 0 1.12.5 1.12 1.118v9.102c0 .617-.502 1.118-1.12 1.118h-1.363a1.119 1.119 0 0 1-1.118-1.118z" fill-rule="evenodd"/></g><clipPath id="l"><path transform="matrix(1 0 0 -1 0 170.16)" d="M0 0h226.8v170.16H0z"/></clipPath><g clip-path="url(#l)"><path d="M63.346 10.662a5.1 5.1 0 1 1 10.198 0 5.1 5.1 0 0 1-10.198 0" fill-rule="evenodd"/></g><clipPath id="m"><path transform="matrix(1 0 0 -1 0 170.16)" d="M0 0h226.8v170.16H0z"/></clipPath><g clip-path="url(#m)"><path d="M54.943 37.246c-6.181 0-11.192 5.01-11.192 11.192v1.24c0 6.182 5.01 11.193 11.192 11.193h26.74c6.182 0 11.193-5.011 11.193-11.192v-1.241c0-6.181-5.011-11.192-11.192-11.192zm5.162-14.938h16.417c12.656 0 22.917 10.26 22.917 22.917v2.542l-.12 1.174.12.587V59.59c0 6.748-5.471 12.219-12.22 12.219H49.408c-6.748 0-12.218-5.471-12.218-12.22V49.529l.118-.587-.118-1.174v-2.542c0-12.656 10.26-22.917 22.916-22.917" fill="#44749b" fill-rule="evenodd"/></g><clipPath id="n"><path transform="matrix(1 0 0 -1 0 170.16)" d="M0 0h226.8v170.16H0z"/></clipPath><g clip-path="url(#n)"><path d="M51.998 47.236a5.669 5.669 0 1 1 11.339 0 5.67 5.67 0 0 1-11.339 0" fill-rule="evenodd"/></g><clipPath id="o"><path transform="matrix(1 0 0 -1 0 170.16)" d="M0 0h226.8v170.16H0z"/></clipPath><g clip-path="url(#o)"><path d="M73.29 47.236a5.669 5.669 0 1 1 11.34 0 5.67 5.67 0 0 1-11.34 0" fill-rule="evenodd"/></g><clipPath id="p"><path transform="matrix(1 0 0 -1 0 170.16)" d="M0 0h226.8v170.16H0z"/></clipPath><g clip-path="url(#p)"><symbol id="q"><path d="M.273 0C.184 0 .116.022.07.067.023.112 0 .177 0 .264v.434h.119V.272c0-.056.013-.1.041-.131A.149.149 0 0 1 .276.094C.33.094.37.11.396.143a.202.202 0 0 1 .042.135v.42h.118V.27C.556.184.532.117.483.07.434.023.364 0 .273 0z"/></symbol><use xlink:href="#q" transform="matrix(60 0 0 -60 22.529 160.039)"/></g><symbol id="r"><path d="M.451 0 .104.557A4.236 4.236 0 0 0 .107.432V0H0v.688h.142L.493.127a2.191 2.191 0 0 0-.005.136v.425h.108V0H.451z"/></symbol><symbol id="s"><path d="M.12 0H0v.688h.12V0z"/></symbol><use xlink:href="#r" transform="matrix(44.04 0 0 -44.04 64.137 158.83)"/><use xlink:href="#s" transform="matrix(44.04 0 0 -44.04 97.982 158.83)"/><clipPath id="t"><path transform="matrix(1 0 0 -1 0 170.16)" d="M0 0h226.8v170.16H0z"/></clipPath><g clip-path="url(#t)"><symbol id="u"><path d="M.395 0H0v.688h.375V.594H.119V.396h.226V.305H.119V.093h.276V0z"/></symbol><use xlink:href="#u" transform="matrix(60 0 0 -60 112.181 159.453)"/></g><symbol id="v"><path d="M.461.35C.461.512.384.594.23.594h-.11v-.5h.125a.2.2 0 0 1 .16.067A.28.28 0 0 1 .46.35m.12 0a.408.408 0 0 0-.04-.187.28.28 0 0 0-.115-.121A.345.345 0 0 0 .253 0H0v.688h.231c.114 0 .2-.029.26-.086C.551.544.581.46.581.35z"/></symbol><symbol id="w"><path d="M.526.688V.592H.321V0H.203v.592H0v.096h.526z"/></symbol><use xlink:href="#v" transform="matrix(44.04 0 0 -44.04 141.919 158.83)"/><use xlink:href="#s" transform="matrix(44.04 0 0 -44.04 173.478 158.83)"/><use xlink:href="#w" transform="matrix(44.04 0 0 -44.04 183.094 158.83)"/></g></svg>